<?xml version="1.0" encoding="UTF-8"?>
<!-- Do not edit this file with editors other than diagrams.net -->
<!DOCTYPE svg PUBLIC "-//W3C//DTD SVG 1.1//EN" "http://www.w3.org/Graphics/SVG/1.1/DTD/svg11.dtd">
<svg xmlns="http://www.w3.org/2000/svg" xmlns:xlink="http://www.w3.org/1999/xlink" version="1.1" width="591px"
    height="187px" viewBox="-0.5 -0.5 591 187" style="background-color: rgb(255, 255, 255);">
<style>
.boxColor { fill:#1565C0 }
.boxTextColor { fill:White }
.boxLineColor { stroke:White; }
</style>
    <g id= "blocks" pointer-events="all">
        <g id="box-primary-observer">
            <rect x="0" y="0" width="109" height="80" rx="7.2" ry="7.2" class="boxColor" stroke="none" pointer-events="all" />
            <g transform="translate(-0.5 -0.5)">      
                <text x="55" y="44" class="boxTextColor" font-family="Helvetica" font-size="12px" text-anchor="middle">Primary</text>
                <text x="55" y="59" class="boxTextColor" font-family="Helvetica" font-size="12px" text-anchor="middle">Observer</text>
            </g>
        </g>

        <g id="box-secondary-observer">
            <rect x="0" y="105" width="109" height="80" rx="7.2" ry="7.2" class="boxColor" stroke="none" pointer-events="all" />
            <g transform="translate(-0.5 -0.5)">
                <text x="55" y="149" class="boxTextColor" font-family="Helvetica" font-size="12px" text-anchor="middle">Secondary</text>
                <text x="55" y="164" class="boxTextColor" font-family="Helvetica" font-size="12px" text-anchor="middle">Observer</text>
            </g>
        </g>

        <g id="box-angle-tracker">
            <rect x="149" y="1" width="120" height="184" rx="7.2" ry="7.2" class="boxColor" stroke="none" pointer-events="all" />
            <g transform="translate(-0.5 -0.5)">
            <text x="209" y="97" class="boxTextColor" font-family="Helvetica" font-size="12px" text-anchor="middle">Angle Tracker</text>
            </g>
        </g>

        <g id="box-soft-switch">
            <rect x="309" y="26" width="100" height="112" rx="6" ry="6" class="boxColor" stroke="none" pointer-events="all" />
            <rect x="343" y="44" width="30" height="60" fill="none" class="boxLineColor" stroke-width="2" pointer-events="all" />
            <path d="M 363 44 L 393 44" fill="none" class="boxLineColor" stroke-width="2" stroke-miterlimit="10" pointer-events="stroke" />
            <path d="M 325 104 L 355 104" fill="none" class="boxLineColor" stroke-width="2" stroke-miterlimit="10" pointer-events="stroke" />

            <g transform="translate(-0.5 -0.5)">
                <text x="359" y="130" class="boxTextColor" font-family="Helvetica" font-size="12px" text-anchor="middle"> Soft Switch </text>
            </g>
        </g>
    </g>
            
    <g id= "connections">       
        <path d="M 109 38 L 142.63 38" fill="none" stroke="rgb(0, 0, 0)" stroke-miterlimit="10" pointer-events="stroke" />
        <path d="M 147.88 38 L 140.88 41.5 L 142.63 38 L 140.88 34.5 Z" fill="rgb(0, 0, 0)" stroke="rgb(0, 0, 0)" stroke-miterlimit="10" pointer-events="all" />
        <path d="M 109 145 L 142.63 145" fill="none" stroke="rgb(0, 0, 0)" stroke-miterlimit="10" pointer-events="stroke" />
        <path d="M 147.88 145 L 140.88 148.5 L 142.63 145 L 140.88 141.5 Z" fill="rgb(0, 0, 0)" stroke="rgb(0, 0, 0)" stroke-miterlimit="10" pointer-events="all" />
        <path d="M 270 86 L 303.63 86" fill="none" stroke="rgb(0, 0, 0)" stroke-miterlimit="10" pointer-events="stroke" />
        <path d="M 308.88 86 L 301.88 89.5 L 303.63 86 L 301.88 82.5 Z" fill="rgb(0, 0, 0)" stroke="rgb(0, 0, 0)" stroke-miterlimit="10" pointer-events="all" />
        <path d="M 410 58 L 443.63 58" fill="none" stroke="rgb(0, 0, 0)" stroke-miterlimit="10" pointer-events="stroke" />
        <path d="M 448.88 58 L 441.88 61.5 L 443.63 58 L 441.88 54.5 Z" fill="rgb(0, 0, 0)" stroke="rgb(0, 0, 0)" stroke-miterlimit="10" pointer-events="all" />
        <path d="M 409 98 L 442.63 98" fill="none" stroke="rgb(0, 0, 0)" stroke-miterlimit="10" pointer-events="stroke" />
        <path d="M 447.88 98 L 440.88 101.5 L 442.63 98 L 440.88 94.5 Z" fill="rgb(0, 0, 0)" stroke="rgb(0, 0, 0)" stroke-miterlimit="10" pointer-events="all" />
    </g>
            
    <g id= "output">
        <g transform="translate(-0.5 -0.5)">
            <text x="454" y="62" fill="rgb(0, 0, 0)" font-family="Helvetica" font-size="12px">Speed (RPM)</text>
        </g>
        <g transform="translate(-0.5 -0.5)">
            <text x="453" y="102" fill="rgb(0, 0, 0)" font-family="Helvetica" font-size="12px">Electrical Angle ( Rad)</text>
        </g>
    </g>
	<g id="tooltip" visibility="hidden">
    <rect width="80" height="24" fill="#FFFDD0" rx="2" ry="2" stroke="black" stroke-width="0.3"/>
    <text x="4" y="15" font-size="10" font-weight="bold" fill="black" lengthAdjust="spacingAndGlyphs" font-family="Arial">t</text>
  </g>
</svg>