<?xml version="1.0"?>
<svg xmlns="http://www.w3.org/2000/svg" version="1.1" xmlns:xlink="http://www.w3.org/1999/xlink" id="mc_plant_view" width="1450" height="755" viewBox="0 0 1450 755">
  <defs id="defs">
    <linearGradient id="fill_hardware" x1="0%" x2="0%" y1="0%" y2="100%">
      <stop offset="0%" stop-color="#6a4f4b"/>
      <stop offset="100%" stop-color="#6a4f4b"/>
    </linearGradient>
    <linearGradient id="fill_control" x1="0%" x2="0%" y1="0%" y2="100%">
      <stop offset="0%" stop-color="#303f9f"/>
      <stop offset="100%" stop-color="#303f9f"/>
    </linearGradient>
    <linearGradient id="fill_peripheral" x1="0%" x2="0%" y1="0%" y2="100%">
      <stop offset="0%" stop-color="#f57f17"/>
      <stop offset="100%" stop-color="#f57f17"/>
    </linearGradient>
    <linearGradient id="fill_mcu_config" x1="0%" x2="0%" y1="0%" y2="100%">
      <stop offset="0%" stop-color="#2e7d32"/>
      <stop offset="100%" stop-color="#2e7d32"/>
    </linearGradient>
    <linearGradient id="fill_unselected" x1="0%" x2="0%" y1="0%" y2="100%">
      <stop offset="0%" stop-color="#757575"/>
      <stop offset="100%" stop-color="#757575"/>
    </linearGradient>
    <path id="knob" d="M 15.63 18.07 C 13.67 18.07 12.94 16.5 12.94 15.51 C 12.94 13.75 14.35 12.88 15.62 12.88 C 16.67 12.88 18.12 13.78 18.12 15.51 C 18.12 16.64 17.17 18.07 15.63 18.07 Z M 15.63 22.45 C 19.32 22.45 22.42 19.33 22.42 15.51 C 22.42 11.09 18.77 8.51 15.63 8.51 C 11.69 8.51 8.57 11.58 8.57 15.51 C 8.57 19.41 11.64 22.45 15.63 22.45 Z M 1.36 22.21 L 0 17.15 L 4.11 15.5 C 4.1 14.7 4.23 13.64 4.46 12.73 L 0.87 10.15 L 3.39 5.68 L 7.36 7.39 C 8.05 6.71 8.79 6.09 9.64 5.59 L 9.01 1.31 L 14.05 0 L 15.6 4.03 C 16.55 4.03 17.5 4.11 18.41 4.37 L 20.92 0.91 L 25.38 3.45 L 23.68 7.33 C 24.37 8.07 24.98 8.85 25.48 9.67 L 29.64 9.04 L 31 14.04 L 27.07 15.6 C 27.07 16.58 26.95 17.53 26.69 18.47 L 30.03 20.94 L 27.51 25.41 L 23.64 23.72 C 22.97 24.46 22.21 24.95 21.45 25.41 L 22.13 29.64 L 17.1 31 L 15.5 27.02 C 14.53 27.03 13.53 26.92 12.64 26.68 L 10.12 30.18 L 5.66 27.65 L 7.36 23.66 C 6.74 23.01 6.16 22.3 5.67 21.48 Z" fill="#455a64" stroke="none"/>
    <g id="shape_vbus">
      <path fill="#78909c" d="M0 0 v25 h-90 l-12 -12 12 -12 z"/>
      <text x="-45" y="16" fill="white" font-family="Helvetica" font-size="12" text-anchor="middle">VBUS_SENSE</text>
    </g>
  </defs>
  <g id="background" pointer-events="none">
    <path id="path54" fill="none" stroke="black" d="M1096.24 391.66v8.27l3.49 1.83-6.98 3.68 6.98 3.67-6.98 3.68 6.98 3.67-6.98 3.68 6.98 3.67-6.98 3.68 3.49 1.84v8.26"/>

    <rect id="rect_full" fill="#78909c" x="360" y="188" width="513" height="347"/>
    <rect id="rect_motor_control" fill="#4b636e" x="540" y="207" width="294" height="276"/>
    <path id="rect_infrastructure" fill="#4b636e" stroke="none" d="M367.93 206.51h162.86v213.75H367.93z"/>
    
<!--
    <path id="rect_motor_control" fill="#4b636e" stroke="none" d="M54 207 h294 v276 h-294 z"/>
-->
    <path id="path126" fill="#fff" stroke="#000" d="M1058.56 510.26l7.76 9.37 7.75-9.37z"/>
    <path id="path128" fill="none" stroke="#000" d="M1066.32 505.57v4.69"/>
    <path id="path132" fill="none" stroke="#000" d="M1035.283 391.63v8.27l3.88 1.84-7.76 3.67 7.76 3.68-7.76 3.67 7.76 3.68-7.76 3.67 7.76 3.68-7.76 3.67 3.88 1.84v8.27"/>
    <path id="path136" fill="none" stroke="#000" stroke-width="2.001" d="M289.37 156.82h820.99"/>
    <path id="path138" fill="none" stroke="#000" stroke-width="2" d="M1066.32 157.76v28.12"/>


    <path id="rect164" fill="none" d="M1089.29 480.05v6.98h-45.94v-6.98z"/>
    <path id="path166" fill="none" stroke="#000" d="M1066.32 460.57v8.27l3.49 1.84-6.98 3.67 6.98 3.68-6.98 3.67 6.98 3.68-6.98 3.67 6.98 3.68-6.98 3.67 3.49 1.84v8.27"/>
    <path id="path168" fill="none" stroke="#000" stroke-width="1.051" d="M590.87 363.88v-12.16q0-11.052 10-11.052h57q10 0 10.05-4.635l.05-4.632"/>
    <path id="path170" stroke="#000" d="M668.04 326.155l3.41 7.04-3.48-1.79-3.52 1.7z"/>
    <path id="path172" fill="none" stroke="#000" stroke-width="1.051" d="M782.44 363.88l.23-12.16q.2-11.05-9.8-11.05h-54q-10 0-10.23-4.644l-.24-4.63"/>
    <path id="path174" stroke="#000" d="M708.11 326.155l3.89 6.79-3.6-1.55-3.39 1.94z"/>
    <path id="path176" fill="none" stroke="#000" stroke-width="2.005" d="M288.42 155.823V542.13"/>
    <path id="rect178" fill="none" d="M280.67 537.44h15.51v14.06h-15.51z"/>
    <path id="path180" fill="#fff" stroke="#000" d="M280.67 542.13l7.75 9.38 7.76-9.38z"/>
    <path id="path182" fill="none" stroke="#000" d="M288.42 537.44v4.69"/>


    <path id="path204" fill="none" stroke="#000" stroke-width="1.004" d="M1066.04 465.26h-68.97"/>
    <path id="path206" stroke="#000" d="M991.82 465.26l7-3.5-1.75 3.5 1.75 3.5z"/>
    <path id="path208" fill="none" stroke="#000" stroke-width=".971" d="M1096.226 382.83h21.112q10.04 0 10.04 9.38l.06 124.29q0 9.38-10.044 9.38h-77.342q-10.045 0-10.045-9.38V505.24q0-9.38-10.044-9.39l-22.51-.018"/>
    <path id="path210" stroke="#000" d="M992.21 493.85l7.01-3.49-1.76 3.49 1.75 3.51z"/>
    <path id="path212" fill="none" stroke="#000" stroke-width="1.019" d="M1035.126 382.76h-13.773q-10.38 0-10.38 10v13.75q0 10-6.757 9.84l-6.758-.16"/>
    <path id="path214" stroke="#000" d="M992.21 416.06l7.08-3.33-1.83 3.46 1.67 3.54z"/>
    <path id="path216" fill="none" stroke="#000" d="M851.5 292.22h40.17"/>
    <path id="path218" stroke="#000" d="M896.92 292.22l-7 3.5 1.75-3.5-1.75-3.5z"/>

    <path id="path230" fill="none" stroke="#000" d="M600.85 286.9h40.16"/>
    <path id="path232" stroke="#000" d="M646.26 286.9l-7 3.5 1.75-3.5-1.75-3.5z"/>
    <path id="path234" fill="none" stroke="#000" stroke-width=".981" d="M936.01 533.272l-.113 10.104q-.113 10.114-9.49 10.134l-147.037.34q-9.373.02-9.355-6.65l.02-6.664"/>
    <path id="path236" stroke="#000" d="M770.116 536.264l3.48 7.01-3.5-1.76-3.5 1.73z"/>
    <path id="path238" fill="none" stroke="#000" stroke-width=".982" d="M976.827 533.26l-.095 25.87q-.037 9.303-10.4 9.236l-223.592-1.44q-10.36-.066-10.292-9.37l.143-19.665"/>
    <path id="path240" stroke="#000" d="M732.587 536.266l3.5 7-3.5-1.75-3.5 1.75z"/>
    <path id="path242" fill="none" stroke="#000" stroke-width=".986" d="M955.866 533.24v17.81q0 9.826-9.9 9.826h-185.96q-9.9 0-9.584-9.828l.337-10.707"/>
    <path id="path244" stroke="#000" d="M750.997 536.312l3.28 7.1-3.44-1.86-3.55 1.64z"/>
    <path id="path246" fill="none" stroke="#000" d="M914.964 533.13l-.13 6.626q-.123 6.61-9.47 6.58l-110.075-.31q-9.35-.03-9.395-2.26l-.038-2.227"/>
    <path id="path248" stroke="#000" d="M785.744 536.076l3.71 6.89-3.55-1.65-3.45 1.86z"/>
    <path id="path250" fill="none" stroke="#000" stroke-width="1.003" d="M1175.832 316.816v262.18q0 10.013-10.057 10.003l-563.846-.12q-10.058 0-10.15-10.013l-.35-38.925"/>
    <path id="path252" stroke="#000" d="M591.38 534.75l3.56 6.97-3.51-1.72-3.49 1.78z"/>
    <path id="path254" fill="none" stroke="#000" stroke-width="1.046" d="M688.005 362.393V331.36"/>
    <path id="path256" stroke="#000" d="M688.005 326.11l3.5 7-3.5-1.75-3.5 1.75z"/>
    <path id="path258" fill="none" stroke="#000" d="M723.54 598.38l10.34-18.75"/>
    <path id="path260" fill="none" stroke="#000" d="M728.71 598.38l10.34-18.75"/>
    <path id="path262" fill="none" stroke="#000" d="M966.28 283.78h40.16"/>
    <path id="path264" stroke="#000" d="M1011.69 283.78l-7 3.5 1.75-3.5-1.75-3.5z"/>
    <path id="path266" fill="none" stroke="#000" d="M993.42 289.01l6.21-9.38"/>
    <path id="path268" fill="none" stroke="#000" d="M996.52 289.01l6.21-9.38"/>

    <path id="path280" fill="none" stroke="#000" d="M879.42 296.51l6.21-9.38"/>
    <path id="path282" fill="none" stroke="#000" d="M882.52 296.51l6.21-9.38"/>

    <path id="path316" fill="none" stroke="#000" stroke-width="2" d="M1113.63 265.26h46.24"/>
    <path id="path318" fill="none" stroke="#000" stroke-width="2.063" d="M1113.63 312.13h49.177"/>
    <path id="path320" fill="none" stroke="#000" stroke-width="2" d="M1113.63 288.51h46.24"/>

    <path id="rect330" fill="none" d="M364.72 294.48v20h-49.69v-20z"/>
    <path id="path332" fill="none" stroke="#000" stroke-width="2" d="M339.87 279.64V302m10 0h-20m10 4.96v22.37m10-17.4c-5.92-6.62-14.07-6.62-20 0"/>
    <path id="path334" fill="none" stroke="#000" stroke-width="2" d="M339.87 155.89v123.75"/>
    <path id="path336" fill="none" stroke="#000" stroke-width="2.002" d="M339.87 329.33v216.55"/>
    <path id="rect338" fill="none" d="M332.36 537.44h15.51v14.06h-15.51z"/>
    <path id="path340" fill="#fff" stroke="#000" d="M332.36 542.13l7.75 9.38 7.76-9.38z"/>
    <path id="path342" fill="none" stroke="#000" d="M340.11 537.44v4.69"/>

    <path id="path354" fill="none" stroke="#000" d="M386.77 589.01l-218.9-.12q-10-.01-10.01-10.01l-.1-197.56"/>
    <path id="path356" stroke="#000" d="M392.02 589.01l-7 3.5 1.75-3.5-1.75-3.5z"/>
    <path id="path358" stroke="#000" d="M157.75 376.07l3.51 7-3.5-1.75-3.5 1.75z"/>
    <path id="path360" fill="none" stroke="#000" d="M453.14 552.64V540"/>
    <path id="path362" stroke="#000" d="M453.14 557.89l-3.5-7 3.5 1.75 3.5-1.75z"/>
    <path id="path364" stroke="#000" d="M453.14 534.75l3.5 7-3.5-1.75-3.5 1.75z"/>

    <path id="path398" fill="none" stroke="#000" d="M1039.18 558.51l-19.31.24q-10 .13-10-9.87v-16q0-10-5.83-9.98l-5.83.03"/>
    <path id="path400" stroke="#000" d="M992.96 522.95l6.98-3.53-1.73 3.51 1.76 3.49z"/>
    <path id="path402" fill="none" stroke="#000" stroke-width=".97" d="M591.007 501.555v-50.448"/>
    <path id="path404" stroke="#000" d="M591.007 445.857l3.5 7-3.5-1.75-3.5 1.75z"/>
    <path id="path406" fill="none" stroke="#000" stroke-width=".983" d="M723.772 501.49l.354-51.86"/>
    <path id="path408" stroke="#000" d="M724.126 444.38l3.5 7-3.5-1.75-3.5 1.75z"/>
    <path id="path410" fill="none" stroke="#000" d="M778.38 501.63V448"/>
    <path id="path412" stroke="#000" d="M778.004 445.874l3.5 7-3.5-1.75-3.5 1.75z"/>
    <path id="path414" fill="none" stroke="#000" d="M1035.318 392.86v-30"/>
    <path id="path416" fill="none" stroke="#000" d="M1066.27 460.57l-.19-96.56"/>
    <path id="path418" fill="none" stroke="#000" stroke-width="1.009" d="M1034.784 438.07h61.954"/>
    <path id="path420" fill="none" stroke="#000" d="M450.85 460.36v34.77"/>
    <path id="path422" stroke="#000" d="M450.85 500.38l-3.5-7 3.5 1.75 3.5-1.75z"/>
    <path id="path434" fill="none" stroke="#000" d="M794.89 291.68h40.16"/>
    <path id="path436" stroke="#000" d="M840.3 291.68l-7 3.5 1.75-3.5-1.75-3.5z"/>
    <path id="path438" fill="none" stroke="#000" d="M695.91 287.81h40.16"/>
    <path id="path440" stroke="#000" d="M741.32 287.81l-7 3.5 1.75-3.5-1.75-3.5z"/>

    <text x="449" y="227" fill="white" font-family="Helvetica" font-size="15" text-anchor="middle">INFRASTRUCTURE</text>
    <text x="695" y="227" fill="white" font-family="Helvetica" font-size="15" text-anchor="middle">MOTOR CONTROL</text>

    <g id="box_vbus_topright">
      <use xlink:href="#shape_vbus" x="1210" y="144"/>
    </g>
    <g id="box_vbus_bottomright">
      <use xlink:href="#shape_vbus" x="1140" y="545"/>
    </g>
    <g id="computer">
      <g id="computer_monitor">
        <path id="path2" d="M192.94 331.177h-71.67c-1.285 0-2.326-1.04-2.326-2.326v-47.765c0-1.285 1.04-2.326 2.326-2.326h71.67c1.287 0 2.33 1.04 2.33 2.325v47.766c0 1.286-1.043 2.327-2.328 2.327zm-69.344-4.652h67.016V283.41h-67.016z"/>
        <path id="path6" d="M200.386 271.546h-86.563c-1.285 0-2.327 1.04-2.327 2.326v70.126c0 1.28 1.042 2.323 2.327 2.323h31.003c-1.145 2.465-3.262 5.827-6.72 7.308-1.014.436-1.584 1.525-1.362 2.607.222 1.08 1.174 1.857 2.28 1.857h36.16c1.106 0 2.058-.776 2.28-1.858.222-1.083-.347-2.172-1.362-2.607-3.432-1.47-5.556-4.84-6.71-7.31h30.994c1.285 0 2.326-1.04 2.326-2.326v-70.12c0-1.287-1.04-2.328-2.326-2.328zm-31.97 81.898h-22.623c2.136-2.537 3.41-5.354 4.068-7.12h14.487c.657 1.766 1.932 4.583 4.07 7.12zm29.644-11.772h-81.91V276.2h81.91z"/>
      </g>
      <g id="computer_keyboard">
        <path id="path10" d="M203.226 371.216H110.99c-.786 0-1.518-.396-1.947-1.054-.43-.657-.5-1.487-.184-2.206l2.834-6.466c.37-.842 1.207-1.39 2.13-1.39h86.564c.92 0 1.76.548 2.13 1.39l2.765 6.317c.172.324.268.694.268 1.087 0 1.285-1.04 2.327-2.325 2.327zm-88.678-4.653h85.11l-.796-1.813H115.34z"/>
      </g>
      <g id="computer_mouse">
        <path id="path16" d="M223.33 371.216h-14.746c-1.285 0-2.327-1.042-2.327-2.326v-3.3c0-3.993 4.26-7.123 9.698-7.123 5.44 0 9.7 3.13 9.7 7.126v3.3c0 1.286-1.042 2.328-2.327 2.328zm-12.42-4.653H221v-.974c0-.986-2.013-2.475-5.047-2.475-3.033 0-5.045 1.49-5.045 2.474z"/>
      </g>
    </g>
  </g>

  <rect id="remove_me" width="1451" height="755" x="0" y="0" fill="none" stroke="black"/>
<!--
  <g id="ribbon" pointer-events="all">
    <g id="ribbon_summary">
      <rect id="shape_summary" width="90" height="40" x="1040" y="55" fill="#d0cee2" rx="4.35" ry="4.35"/>
      <text id="text514" x="1088" y="79" fill="black" font-family="Helvetica" font-size="14" text-anchor="middle">Summary</text>
    </g>
    <g id="ribbon_help">
      <rect id="rect483" fill="#d0cee2" width="80" height="40" x="1135" y="55" rx="4.35" ry="4.35"/>
      <text id="text484" x="1175" y="80" fill="black" font-family="Helvetica" font-size="14" text-anchor="middle">Help</text>
    </g>
  </g>
-->
  <g id="group_hardware" pointer-events="all">
    <g id="ribbon_hardware" transform="translate(150,0)">
      <path id="shape_hardware" title="regular tooltip" fill="url('#fill_hardware')" d="M223.87 55.88h146.16l10 20-10 20H223.87l10-20z"/>
      <text id="text624" x="302" y="83" fill="white" font-family="Helvetica" font-size="20" text-anchor="middle">Hardware</text>
    </g>
    <g id="box_analog_frontend">
      <rect id="rect156" width="93" height="156" x="898" y="377" fill="url('#fill_hardware')" rx="5.0" ry="5.0"/>
      <text id="text158" x="945" y="450" fill="white" font-family="Helvetica" font-size="12" text-anchor="middle">
        Analog
        <tspan x="945" dy="15" text-anchor="middle">Front</tspan>
        <tspan x="945" dy="15" text-anchor="middle">End</tspan>
      </text>
    </g>
    <g id="box_vdc">
      <circle id="circle1" cx="287" cy="309" r="28.624" fill="url('#fill_hardware')"/>
      <text id="text188" x="286" y="313" fill="white" font-family="Helvetica" font-size="12" text-anchor="middle">VDC</text>
    </g>
    <g id="box_gate_driver">
      <rect id="rect272" width="93" height="178" x="898" y="186" fill="url('#fill_hardware')" rx="5.0" ry="5.0"/>
      <text id="text274" x="945" y="279" fill="white" font-family="Helvetica" font-size="12" text-anchor="middle">Gate
        <tspan x="945" dy="15" text-anchor="middle">Driver</tspan>
      </text>
    </g>
    <g id="box_motor">
      <circle id="circle_motor" cx="1176" cy="288" r="28.624" fill="url('#fill_hardware')"/>
      <text id="text_motor" x="1176" y="292" fill="white" font-family="Helvetica" font-size="12" text-anchor="middle">M</text>
    </g>
    <g id="box_pc_interface">
      <rect id="rect346" width="120" height="60" x="392" y="559" fill="url('#fill_hardware')" rx="5.0" ry="5.0"/>
      <text id="text348" x="452" y="592" fill="white" font-family="Helvetica" font-size="12" text-anchor="middle">PC interface</text>
    </g>
    <g id="relays">
      <rect id="rect50" width="101" height="178" x="1013" y="186" fill="url('#fill_hardware')" rx="5.0" ry="5.0"/>
      <ellipse cx="1062" cy="264" fill="white" stroke="#000" rx="10.968" ry="11.648"/>
      <path fill="none" stroke="#000" d="M1059.92 259.18h6.09v-9.06m-17.06 20.45h10.24v-12.69m.73 6.47h6.09v14.24m-6.09-9.06h6.09"/>
      <path fill="none" stroke="#000" d="M1063.7 263.06l-3.54 1.29 3.54 1.3z"/>
      <path fill="none" stroke="#000" d="M1059.92 257.88v12.94"/>
      <ellipse cx="1062" cy="326" fill="white" stroke="#000" rx="10.968" ry="11.648"/>
      <path fill="none" stroke="#000" d="M1059.92 320.87h6.09v-9.06m-17.06 20.45h10.24v-12.69m.73 6.48h6.09v14.23m-6.09-9.06h6.09"/>
      <path fill="none" stroke="#000" d="M1063.7 324.75l-3.54 1.3 3.54 1.29z"/>
      <path fill="none" stroke="#000" d="M1059.92 319.57v12.95"/>
      <ellipse cx="1032" cy="264" fill="white" stroke="#000" rx="10.968" ry="11.648"/>
      <path fill="none" stroke="#000" d="M1029.21 259.18h6.09v-9.06m-17.06 20.45h10.24v-12.69m.73 6.47h6.09v14.24m-6.09-9.06h6.09"/>
      <path fill="none" stroke="#000" d="M1032.99 263.06l-3.54 1.29 3.54 1.3z"/>
      <path fill="none" stroke="#000" d="M1029.21 257.88v12.94"/>
      <ellipse cx="1032" cy="326" fill="white" stroke="#000" rx="10.968" ry="11.648"/>
      <path fill="none" stroke="#000" d="M1029.21 320.87h6.09v-9.06m-17.06 20.45h10.24v-12.69m.73 6.48h6.09v14.23m-6.09-9.06h6.09"/>
      <path fill="none" stroke="#000" d="M1032.99 324.75l-3.54 1.3 3.54 1.29z"/>
      <path fill="none" stroke="#000" d="M1029.21 319.57v12.95"/>
      <ellipse cx="1093" cy="264" fill="white" stroke="#000" rx="10.968" ry="11.648"/>
      <path fill="none" stroke="#000" d="M1090.14 259.18h6.1v-9.06m-17.06 20.45h10.23v-12.69m.73 6.47h6.1v14.24m-6.1-9.06h6.1"/>
      <path fill="none" stroke="#000" d="M1093.92 263.06l-3.53 1.29 3.53 1.3z"/>
      <path fill="none" stroke="#000" d="M1090.14 257.88v12.94"/>
      <ellipse cx="1093" cy="326" fill="white" stroke="#000" rx="10.968" ry="11.648"/>
      <path fill="none" stroke="#000" d="M1090.14 320.87h6.1v-9.06m-17.06 20.45h10.23v-12.69m.73 6.48h6.1v14.23m-6.1-9.06h6.1"/>
      <path fill="none" stroke="#000" d="M1093.92 324.75l-3.53 1.3 3.53 1.29z"/>

      <path id="path102" fill="none" stroke="#000" d="M1090.14 319.57v12.95"/>
      <path id="path104" fill="none" stroke="#000" d="M1035.3 235.88h60.94"/>
      <path id="path106" fill="none" stroke="#000" d="M1035.3 250.12v-14.24"/>
      <path id="path108" fill="none" stroke="#000" d="M1096.24 235.88v14.24"/>
      <path id="path110" fill="none" stroke="#000" d="M1066.01 235.88v14.24"/>
      <path id="path112" fill="none" stroke="#000" d="M1035.3 364.01v-23.73"/>
      <path id="path114" fill="none" stroke="#000" d="M1066.01 364.01v-23.73"/>
      <path id="path116" fill="none" stroke="#000" d="M1096.24 393.45v-53.17"/>
      <path id="path118" fill="none" stroke="#000" d="M1035.3 311.81v-33.22"/>
      <path id="path120" fill="none" stroke="#000" d="M1066.01 311.81v-33.22"/>
      <path id="path122" fill="none" stroke="#000" d="M1096.24 311.81v-33.22"/>
    </g>
  </g>
  <g id="group_control" pointer-events="all">
    <g id="ribbon_control" transform="translate(150,0)">
      <path id="shape_control" style="fill:url(#fill_control)" d="M380.03 55.88h146.16l10 20-10 20H380.03l10-20z"/>
      <text id="text632" x="458" y="83" fill="white" font-family="Helvetica" font-size="20" text-anchor="middle">Control</text>
    </g>
    <g id="box_startup_configurator">
      <rect id="rect_startup_configurator" width="80" height="80" x="550" y="244" style="fill:url(#fill_control);" rx="5.0" ry="5.0"/>
      <text id="text658" x="588" y="280" fill="white" font-family="Helvetica" font-size="12" text-anchor="middle">
        Start-up
        <tspan x="588" dy="15" text-anchor="middle">Configurator</tspan>
      </text>
    </g>
    <g id="box_motor_control_diagnosis">
      <rect id="rect_motor_control_diagnosis" width="80" height="80" x="648" y="244" style="fill:url(#fill_control)" rx="5.0" ry="5.0"/>
      <text id="text668" x="687" y="270" fill="white" font-family="Helvetica" font-size="12" text-anchor="middle">
        Motor
        <tspan x="687" dy="15" text-anchor="middle">Control</tspan>
        <tspan x="687" dy="15" text-anchor="middle">Diagnosis</tspan>
      </text>
    </g>
    <g id="box_output_stage">
      <rect id="Output_Stage_Diagnosis" width="80" height="80" x="742" y="244" style="fill:url(#fill_control)" rx="5.0" ry="5.0"/>
      <text id="text678" x="783" y="280" fill="white" font-family="Helvetica" font-size="12" text-anchor="middle">Output
        <tspan x="783" dy="15" text-anchor="middle">Stage</tspan>
      </text>
    </g>
    <g id="box_position_calculation_diagnosis">
      <rect id="rect_position_calculation_diagnosis" width="80" height="80" x="550" y="363" style="fill:url(#fill_control)" rx="5.0" ry="5.0"/>
      <text id="text_position_calculation_diagnosis" x="591" y="392" fill="white" font-family="Helvetica" font-size="12" text-anchor="middle">
        Position
        <tspan x="591" dy="15" text-anchor="middle">Calculation</tspan>
        <tspan x="591" dy="15" text-anchor="middle">Diagnosis</tspan>
      </text>
    </g>
    <g id="box_current_measurement_diagnosis">
      <rect id="rect_current_measurement_diagnosis" width="80" height="80" x="648" y="363" style="fill:url(#fill_control)" rx="5.0" ry="5.0"/>
      <text id="text_current_measurement_diagnosis" x="689" y="392" fill="white" font-family="Helvetica" font-size="12" text-anchor="middle">
        Current
        <tspan x="689" dy="15" text-anchor="middle">Measurement</tspan>
        <tspan x="689" dy="15" text-anchor="middle">Diagnosis</tspan>
      </text>
    </g>
    <g id="box_voltage_measurement_diagnosis">
      <rect id="rect_voltage_measurement_diagnosis" width="80" height="80" x="742" y="363" style="fill:url(#fill_control)" rx="5.0" ry="5.0"/>
      <text id="text_voltage_measurement_diagnosis" x="783" y="392" fill="white" font-family="Helvetica" font-size="12" text-anchor="middle">Voltage
        <tspan x="783" dy="15" text-anchor="middle">Measurement</tspan>
        <tspan x="783" dy="15" text-anchor="middle">Diagnosis</tspan>
      </text>
    </g>
    <g id="box_safety_function">
      <rect id="Control" width="69.8" height="49.25" x="378.679" y="359.939" style="fill:url(#fill_control)" rx="5.0" ry="5.0"/>
      <text id="text728" x="414" y="380" fill="white" font-family="Helvetica" font-size="12" text-anchor="middle">Safety
        <tspan x="414" dy="15" text-anchor="middle">Function</tspan>
      </text>
    </g>
    <g id="box_fault_handler">
      <rect id="rect146" width="69.8" height="50.25" x="453.909" y="358.629" style="fill:url(#fill_control)" rx="5.0" ry="5.0"/>
      <text id="text148" x="489" y="380" fill="white" font-family="Helvetica" font-size="12" text-anchor="middle">Fault
        <tspan x="489" dy="15" text-anchor="middle">Handler</tspan>
      </text>
    </g>
    <g id="box_data_monitoring">
      <rect id="rect426" width="159.76" height="54.19" x="371.259" y="428.689" style="fill:url(#fill_control)" rx="5.0" ry="5.0"/>
      <text id="text428" x="451" y="459" fill="white" font-family="Helvetica" font-size="12" text-anchor="middle">Data Monitoring</text>
    </g>
  </g>
  <g id="group_peripheral" pointer-events="all">
    <g id="ribbon_peripheral" transform="translate(150,0)">
      <path id="shape_peripheral" style="fill:url(#fill_peripheral)" d="M536.19 55.88h146.17l10 20-10 20H536.19l10-20z"/>
      <text id="text640" x="614" y="83" fill="white" font-family="Helvetica" font-size="20" text-anchor="middle">Peripheral</text>
    </g>
    <g id="box_comm">
      <rect id="rect196" width="56" height="32" x="425" y="502" style="fill:url(#fill_peripheral)" rx="5.0" ry="5.0"/>
      <text id="text198" x="453" y="522" fill="white" font-family="Helvetica" font-size="12" text-anchor="middle">COMM</text>
    </g>
    <g id="box_pwm">
      <rect id="Peripheral" width="31" height="94" x="842" y="252" style="fill:url(#fill_peripheral)" rx="5.0" ry="5.0"/>
      <text id="text224" x="858" y="290" fill="white" font-family="Helvetica" font-size="12" text-anchor="middle">
        P
        <tspan x="858" dy="15" text-anchor="middle">W</tspan>
        <tspan x="857" dy="15" text-anchor="middle">M</tspan>
      </text>
    </g>
    <g id="box_position_interface">
      <rect id="rect286" width="71" height="32" x="556" y="502" style="fill:url(#fill_peripheral)" rx="5.0" ry="5.0"/>
      <text id="text288" x="592" y="516" fill="white" font-family="Helvetica" font-size="11" text-anchor="middle">
        Position
        <tspan x="592" dy="13" text-anchor="middle">Interface</tspan>
      </text>
    </g>
    <g id="box_digital_interface">
      <rect id="rect296" width="60" height="32" x="642" y="501.967" style="fill:url(#fill_peripheral)" rx="5.0" ry="5.0"/>
      <text id="text298" x="673" y="516" fill="white" font-family="Helvetica" font-size="11" text-anchor="middle">
      Digital
        <tspan x="673" dy="13" text-anchor="middle">Interface</tspan>
      </text>
    </g>
    <g id="box_analog_interface">
      <rect id="rect306" width="80" height="32" x="718" y="502" style="fill:url(#fill_peripheral)" rx="5.0" ry="5.0"/>
        <text id="text308" x="756" y="516" fill="white" font-family="Helvetica" font-size="11" text-anchor="middle">
        Analog
        <tspan x="756" dy="13" text-anchor="middle">Interface</tspan>
      </text>
    </g>
  </g>
  <g id="group_mcu_config" pointer-events="all">
    <g id="ribbon_mcu_config" transform="translate(150,0)">
      <path id="shape_mcu_config" style="fill:url(#fill_mcu_config)" d="M692.36 55.88h146.16l10 20-10 20H692.36l10-20z"/>
      <text id="text648" x="771" y="82" fill="white" font-family="Helvetica" font-size="20" text-anchor="middle">MCU Config</text>
    </g>
    <g id="box_clock_manager">
      <rect id="MCU" width="70" height="50" x="379" y="241" style="fill:url(#fill_mcu_config)" rx="5.0" ry="5.0"/>
      <text id="text688" x="415" y="262" fill="white" font-family="Helvetica" font-size="12" text-anchor="middle">
        Clock
        <tspan x="415" dy="15" text-anchor="middle">Manager</tspan>
      </text>
    </g>
    <g id="box_io_manager">
      <rect id="rect696" width="70" height="50" x="455" y="241" style="fill:url(#fill_mcu_config)" rx="5.0" ry="5.0"/>
      <text id="text698" x="490" y="262" fill="white" font-family="Helvetica" font-size="12" text-anchor="middle">
        IO
        <tspan x="490" dy="15" text-anchor="middle">Manager</tspan>
      </text>
    </g>
    <g id="box_interrupts_exception">
      <rect id="rect706" width="70" height="50" x="379" y="299" style="fill:url(#fill_mcu_config)" rx="5.0" ry="5.0"/>
      <text id="text708" x="415" y="322" fill="white" font-family="Helvetica" font-size="12" text-anchor="middle">
        Interrupts
        <tspan x="415" dy="15" text-anchor="middle">Exception</tspan>
      </text>
    </g>
    <g id="box_memory_manager">
      <rect id="rect716" width="70" height="50" x="455" y="299" style="fill:url(#fill_mcu_config)" rx="5.0" ry="5.0"/>
      <text id="text718" x="490" y="322" fill="white" font-family="Helvetica" font-size="12" text-anchor="middle">
        Memory
        <tspan x="490" dy="15" text-anchor="middle">Control</tspan>
      </text>
    </g>
  </g>
  <g id="box_quicksettings" pointer-events="all">
    <!-- <rect x="1200" y="61" width="31" height="31" fill="none" stroke="none"/> -->
    <use x="1150" y="51" xlink:href="#knob" />
    <text x="1163" y="100" fill="black" font-family="Helvetica" font-size="10" text-anchor="middle">Quick settings</text>
  </g>
  <g id="tooltip" visibility="hidden">
    <rect width="80" height="24" fill="#FFFDD0" rx="2" ry="2" stroke="black" stroke-width="0.3"/>
    <text x="4" y="15" font-size="10" font-weight="bold" fill="black" lengthAdjust="spacingAndGlyphs" font-family="Arial">t</text>
  </g>
</svg>
