<svg xmlns="http://www.w3.org/2000/svg" width="24" height="24" viewBox="0 0 24 24"><defs><style>.a{fill:#0078a0;fill-rule:evenodd;}</style></defs><path class="a" d="M28.939,10.251c-.1,2.291-.967,6.842-6.645,12.648a21.116,21.116,0,0,1-2.9,2.491l-1.008,4.219v.163l-3.6,3.117c-.171.155-.327-.014-.32-.18l-1.451-4.163a4.782,4.782,0,0,1-2.612-.284L8.855,29.831a.308.308,0,0,1-.492-.022l-.116-.126-.127-.116a.308.308,0,0,1-.022-.492l1.569-1.546a4.776,4.776,0,0,1-.284-2.611L5.22,23.47c-.163,0-.335-.149-.18-.32l3.118-3.586h.163l4.218-1.02a21.1,21.1,0,0,1,2.492-2.9C20.843,9.97,25.4,9.107,27.686,9l1.145-.053a.1.1,0,0,1,.088.045h0v.016s.014,0,.016,0h0a.1.1,0,0,1,.045.088ZM21,16.847a2.136,2.136,0,1,0,0,3.021,2.137,2.137,0,0,0,0-3.021Z" transform="translate(-4.98 -8.95)"/></svg>