<svg xmlns="http://www.w3.org/2000/svg" width="24" height="24" viewBox="0 0 24 24"><defs><style>.a{fill:none;}.b{fill:#0078a0;fill-rule:evenodd;}.c{fill:#fff;}</style></defs><g transform="translate(-178 -396)"><rect class="a" width="24" height="24" transform="translate(178 396)"/><g transform="translate(178.125 395.979)"><path class="b" d="M20.194,22.437H13.32v.124a1.46,1.46,0,1,1-2.921,0v-.123H3.6A2.681,2.681,0,0,1,1,19.715,2.725,2.725,0,0,1,3.311,17.03l.621-7.453a7.893,7.893,0,0,1,7.19-7.861,1.027,1.027,0,1,1,1.559,0A7.9,7.9,0,0,1,19.8,9.572l.621,7.454a2.722,2.722,0,0,1-.226,5.41ZM12.571,1.051a.667.667,0,1,0-.872.634h.406A.667.667,0,0,0,12.571,1.051Z" transform="translate(0 0)"/><path class="c" d="M9.845,12.563a.923.923,0,1,1-.923-.923.923.923,0,0,1,.923.923Z" transform="translate(2.816 4.721)"/><path class="c" d="M9.448,4.793A1.546,1.546,0,0,0,8.019,6.44l.422,5.771c.081.746.15,1.169.422,1.368a1.258,1.258,0,0,0,1.165,0c.274-.2.344-.622.425-1.37l.422-5.771A1.546,1.546,0,0,0,9.448,4.793Z" transform="translate(2.291 1.21)"/></g></g></svg>