<svg xmlns="http://www.w3.org/2000/svg" width="24" height="24" viewBox="0 0 24 24"><defs><style>.a{fill:none;}.b{fill:#0078a0;}.c{fill:#fff;}</style></defs><circle class="a" cx="12" cy="12" r="12"/><g transform="translate(1 1)"><circle class="b" cx="11" cy="11" r="11"/></g><g transform="translate(8.616 5.234)"><g transform="translate(0 0)"><path class="c" d="M11.6,5.447a1.461,1.461,0,1,1-2.921,0A1.461,1.461,0,1,1,11.6,5.447Z" transform="translate(-6.268 -3.986)"/><path class="c" d="M6.005,9.877A31.542,31.542,0,0,1,10.734,7.7c1.114-.2.91,1.273.91,1.273l-1.228,3.336s-.819,2.345-.432,2.66c.364.3,1.909-.978,1.909-.978l.273.568s-2.951,2.31-3.911,2.24c-1.808-.128-.1-4.595.091-7.007.04-.506-.842.091-.842.091l-1.37.813Z" transform="translate(-6.005 -3.479)"/></g></g></svg>