<svg xmlns="http://www.w3.org/2000/svg" width="24" height="24" viewBox="0 0 24 24"><defs><style>.a{fill:none;}.b{fill:#f5bc15;}.c{fill:#f6bd16;}.d{stroke:#000;stroke-linecap:square;stroke-width:0.537px;}</style></defs><g transform="translate(-180 -396)"><path class="a" d="M0,0H24V24H0Z" transform="translate(180 396)"/><g transform="translate(179.975 352.775)"><path class="b" d="M23.938,64.741,12.581,45.069a.642.642,0,0,0-.556-.32.65.65,0,0,0-.556.32L.112,64.741a.632.632,0,0,0,0,.64.642.642,0,0,0,.556.32H23.382a.65.65,0,0,0,.556-.32.632.632,0,0,0,0-.64Z"/><path class="c" d="M47.078,46.758H26.589L36.833,29.091Z" transform="translate(-24.804 17.66)"/><path d="M161.886,286.7a1.516,1.516,0,1,1-1.516-1.516A1.516,1.516,0,0,1,161.886,286.7Z" transform="translate(-148.34 -224.557)"/><path class="d" d="M160.723,146.924a1.5,1.5,0,0,0-1.491,1.523l.441,5.335c.084.69.156,1.081.441,1.265a1.464,1.464,0,0,0,1.216,0c.286-.183.359-.575.444-1.266l.441-5.335A1.5,1.5,0,0,0,160.723,146.924Z" transform="translate(-148.694 -95.429)"/></g></g></svg>