<svg xmlns="http://www.w3.org/2000/svg" width="647" height="373" viewBox="-0.5 -0.5 647 373">
  <defs>
    <linearGradient x1="0%" y1="100%" x2="0%" y2="0%" id="gradient-fieldalignment">
      <stop offset="0%" style="stop-color:#dae8fc"/>
      <stop offset="100%" style="stop-color:#ffffff"/>
    </linearGradient>
    <linearGradient x1="0%" y1="100%" x2="0%" y2="0%" id="gradient-acceleration">
      <stop offset="0%" style="stop-color:#ffe6cc"/>
      <stop offset="100%" style="stop-color:#ffffff"/>
    </linearGradient>
    <linearGradient x1="0%" y1="100%" x2="0%" y2="0%" id="gradient-hold">
      <stop offset="0%" style="stop-color:#e1d5e7"/>
      <stop offset="100%" style="stop-color:#ffffff"/>
    </linearGradient>
    <linearGradient x1="0%" y1="100%" x2="0%" y2="0%" id="gradient-closeloop">
      <stop offset="0%" style="stop-color:#f5f5f5"/>
      <stop offset="100%" style="stop-color:#ffffff"/>
    </linearGradient>
  </defs>
  <g>
    <g id="box-fieldalignment" pointer-events="all">
      <rect x="152" y="21" width="114" height="219" fill="url(#gradient-fieldalignment)" stroke="none"/>
      <text x="205" y="34" fill="#000000" font-family="Verdana" font-size="12px" text-anchor="middle">Field
        <tspan x="205" y="46">Alignment </tspan>
      </text>
    </g>
    <g id="box-acceleration" pointer-events="all">
      <rect x="267" y="23" width="129" height="219.31" fill="url(#gradient-acceleration)" stroke="none"/>
      <text x="330" y="34" fill="#000000" font-family="Verdana" font-size="12px" text-anchor="middle">Acceleration</text>
    </g>
    <g id="box-hold" pointer-events="all">
      <rect x="395" y="21" width="61" height="219.31" fill="url(#gradient-hold)" stroke="none"/>
      <text x="418" y="36" fill="#000000" font-family="Verdana" font-size="12px" text-anchor="middle">Hold</text>
    </g>
    <g id="box-closeloop" pointer-events="all">
      <rect x="451" y="21" width="127" height="219" fill="url(#gradient-closeloop)" stroke="none"/>
      <text x="523" y="33" fill="#000000" font-family="Verdana" font-size="12px" text-anchor="middle">Close
        <tspan x="523" y="46">Loop</tspan>
      </text>
    </g>
    <g id="y-axis" pointer-events="none">
      <path d="M 122 242 L 122 13" fill="none" stroke="#000000" stroke-miterlimit="10"/>
      <path d="M 122.48 8.12 L 125.98 15.12 L 122.48 13 L 118.98 15.12 Z" fill="#000000" stroke="#000000" stroke-miterlimit="10"/>
      <text x="115" y="42" fill="#000000" font-family="Verdana" font-size="12px" text-anchor="middle" transform="rotate(-90 115 42)">Speed</text>
    </g>
    <g id="x-axis" pointer-events="none">
      <path d="M 122.48 242 L 630.63 242" fill="none" stroke="#000000" stroke-miterlimit="10"/>
      <path d="M 635.88 242 L 628.88 245.48 L 630.63 242 L 628.88 238.48 Z" fill="#000000" stroke="#000000" stroke-miterlimit="10"/>
      <text x="615" y="265" fill="#000000" font-family="Verdana" font-size="12px" text-anchor="middle">time</text>
    </g>
    <g id="curve" pointer-events="none">
      <path d="M 137 242 L 265 242" fill="none" stroke="#990000" stroke-miterlimit="10"/>
      <path d="M 265 242 L 266 242 L 268 241 L 270.28 240.03 L 271.32 239.64 L 273.21 239 L 275.24 238.26 L 277.13 237.62 L 279.01 237.19 L 280.82 236.65 L 282.64 236.12 L 284.44 235.6 L 286.19 235.07 L 287.99 234.53 L 289.72 234 L 291.47 233.47 L 293.06 232.83 L 294.65 232.29 L 296.18 231.76 L 297.7 231.24 L 299.23 230.71 L 300.82 230.17 L 302.41 229.54 L 304.08 228.8 L 305.75 228.16 L 307.26 227.4 L 308.72 226.76 L 310.02 226.13 L 311.25 225.59 L 312.33 224.95 L 313.42 224.54 L 314.37 224.11 L 315.31 223.68 L 316.25 223.26 L 317.2 222.73 L 318.13 222.2 L 319.22 221.56 L 320.31 220.92 L 321.39 220.18 L 322.63 219.32 L 324.01 218.25 L 325.53 217.1 L 327.04 215.92 L 328.71 214.65 L 330.24 213.37 L 331.62 212.08 L 332.99 210.81 L 334.22 209.53 L 335.31 208.36 L 336.47 206.98 L 337.56 205.71 L 338.49 204.43 L 339.51 203.05 L 340.74 201.55 L 341.98 199.86 L 343.28 198.26 L 344.58 196.66 L 345.67 195.28 L 346.76 193.8 L 347.77 192.3 L 348.85 190.82 L 349.88 189.21 L 350.89 187.73 L 351.82 186.13 L 352.77 184.55 L 353.72 182.84 L 354.81 180.93 L 355.89 179.01 L 356.83 177.1 L 357.78 175.29 L 358.71 173.38 L 359.72 171.45 L 360.67 169.43 L 361.68 167.52 L 362.63 165.5 L 363.64 163.37 L 364.73 161.02 L 365.81 158.58 L 366.98 155.92 L 368.14 153.27 L 369.29 150.5 L 370.37 147.74 L 371.4 145.29 L 372.26 143.05 L 373.07 141.24 L 373.71 139.66 L 374.22 138.38 L 374.66 137.11 L 375.09 135.83 L 375.52 134.54 L 375.88 133.16 L 376.33 131.68 L 376.68 130.08 L 377.12 128.37 L 377.55 126.56 L 377.98 124.77 L 378.42 123.06 L 378.78 121.36 L 379.22 119.75 L 379.65 118.06 L 380.23 116.15 L 380.81 114.22 L 381.39 112.31 L 381.98 110.4 L 382.56 108.38 L 383.14 106.47 L 383.71 104.56 L 384.22 102.75 L 384.65 101.14 L 385.08 99.56 L 385.45 98.16 L 385.82 96.89 L 386.11 95.72 L 386.46 94.54 L 386.75 93.27 L 387.12 92.1 L 387.41 90.94 L 387.62 89.87 L 387.84 88.6 L 387.99 87.32 L 388.21 86.15 L 388.34 84.98 L 388.57 83.91 L 388.71 82.74 L 388.86 81.46 L 389.08 80.19 L 389.29 79.12 L 389.51 77.95 L 389.72 76.9 L 389.95 75.83 L 390.16 74.76 L 390.38 73.81 L 390.59 72.95 L 390.75 72.11 L 390.99 71.37 L 391.18 70.51 L 391.18 69.66" fill="none" stroke="#990000" stroke-miterlimit="10"/>
      <path d="M 390 70 L 451 70" fill="none" stroke="#990000" stroke-miterlimit="10"/>
      <path transform="translate(0 1)" d="M 451 69 L 464.75 65.42 Q 474.54 63.39 481.26 70.8 L 485.01 74.93 Q 488.76 79.06 496.09 72.26 L 500.86 67.82 Q 505.63 63.39 512.95 70.2 L 517.72 74.63 Q 522.49 79.06 529.82 72.26 L 534.59 67.82 Q 539.36 63.39 546.69 70.2 L 551.46 74.63 Q 556.23 79.06 563.56 72.26 L 573.1 63.39" fill="none" stroke="#990000" stroke-miterlimit="10"/>

      <path d="M 391.89 70 L 122.48 70.98" fill="none" stroke="#cccccc" stroke-miterlimit="10" stroke-dasharray="3 3"/>
      <text x="71" y="75" fill="#000000" font-family="Verdana" font-size="12px" text-anchor="middle">Open loop
        <tspan x="71" y="87">End speed</tspan>
      </text>
    </g>
    <g id="title" pointer-events="none">
      <text x="351" y="360" fill="#000000" font-family="Verdana" font-size="12px" text-anchor="middle">Speed Profile</text>
    </g>
    <g id="bottom-legend" pointer-events="none">
      <text x="151" y="261" fill="#000000" font-family="Verdana" font-size="12px" text-anchor="middle">0</text>
      <path d="M 157.44 274.88 L 259.04 274.88" fill="none" stroke="#000000" stroke-miterlimit="10"/>
      <path d="M 152.19 274.88 L 159.19 271.38 L 157.44 274.88 L 159.19 278.38 Z" fill="#000000" stroke="#000000" stroke-miterlimit="10"/>
      <path d="M 264.29 274.88 L 257.29 278.38 L 259.04 274.88 L 257.29 271.38 Z" fill="#000000" stroke="#000000" stroke-miterlimit="10"/>
      <path d="M 267.48 274.88 L 387.67 274.88" fill="none" stroke="#000000" stroke-miterlimit="10"/>
      <path d="M 262.23 274.88 L 269.23 271.38 L 267.48 274.88 L 269.23 278.38 Z" fill="#000000" stroke="#000000" stroke-miterlimit="10"/>
      <path d="M 392.92 274.88 L 385.92 278.38 L 387.67 274.88 L 385.92 271.38 Z" fill="#000000" stroke="#000000" stroke-miterlimit="10"/>
      <path d="M 400.4 274.88 L 444.83 274.88" fill="none" stroke="#000000" stroke-miterlimit="10"/>
      <path d="M 395.15 274.88 L 402.15 271.38 L 400.4 274.88 L 402.15 278.38 Z" fill="#000000" stroke="#000000" stroke-miterlimit="10"/>
      <path d="M 450.08 274.88 L 443.08 278.38 L 444.83 274.88 L 443.08 271.38 Z" fill="#000000" stroke="#000000" stroke-miterlimit="10"/>
      <path d="M 150.78 282.71 L 150.78 267.04" fill="none" stroke="#000000" stroke-miterlimit="10"/>
      <path d="M 263.69 282.71 L 263.69 267.04" fill="none" stroke="#000000" stroke-miterlimit="10"/>
      <path d="M 393.75 282.71 L 393.75 267.04" fill="none" stroke="#000000" stroke-miterlimit="10"/>
      <path d="M 452.35 282.71 L 452.35 267.04" fill="none" stroke="#000000" stroke-miterlimit="10"/>

      <text x="208" y="305" fill="#000000" font-family="Verdana" font-size="12px" text-anchor="middle">Alignment
        <tspan x="208" y="320">Time</tspan>
      </text>
      <text x="330" y="305" fill="#000000" font-family="Verdana" font-size="12px" text-anchor="middle">Acceleration
        <tspan x="330" y="320">Time</tspan>
      </text>
      <text x="420" y="307" fill="#000000" font-family="Verdana" font-size="12px" text-anchor="middle">Hold
        <tspan x="420" y="320">Time</tspan>
      </text>
    </g>
  </g>
</svg>
