<?xml version="1.0" encoding="UTF-8" standalone="no"?>
<!-- Created with Inkscape (http://www.inkscape.org/) -->

<svg
   xmlns:dc="http://purl.org/dc/elements/1.1/"
   xmlns:cc="http://creativecommons.org/ns#"
   xmlns:rdf="http://www.w3.org/1999/02/22-rdf-syntax-ns#"
   xmlns:svg="http://www.w3.org/2000/svg"
   xmlns="http://www.w3.org/2000/svg"
   version="1.1"
   width="31.231251"
   height="31.23"
   id="svg2997"
   xml:space="preserve"><metadata
     id="metadata3003"><rdf:RDF><cc:Work
         rdf:about=""><dc:format>image/svg+xml</dc:format><dc:type
           rdf:resource="http://purl.org/dc/dcmitype/StillImage" /><dc:title></dc:title></cc:Work></rdf:RDF></metadata><defs
     id="defs3001" /><g
     transform="matrix(1.25,0,0,-1.25,-192.78125,667.1525)"
     id="g3005"><g
       id="g4270"><path
         d="m 174.213,533.722 -14.991,0 c -2.747,0 -4.997,-2.248 -4.997,-4.997 l 0,-14.989 c 0,-2.749 2.25,-4.998 4.997,-4.998 l 14.991,0 c 2.749,0 4.997,2.249 4.997,4.998 l 0,14.989 c 0,2.749 -2.248,4.997 -4.997,4.997 z"
         id="path4268"
         style="fill:#f79121;fill-opacity:1;fill-rule:nonzero;stroke:none" /><path
         d="m 166.914,511.319 c -1.091,0 -1.979,0.889 -1.979,1.98 0,1.092 0.888,1.982 1.979,1.982 1.092,0 1.981,-0.89 1.981,-1.982 0,-1.091 -0.889,-1.98 -1.981,-1.98 z"
         id="path4266"
         style="fill:#ffffff;fill-opacity:1;fill-rule:nonzero;stroke:none" /><path
         d="m 168.742,518.505 c 0,-1.041 -0.811,-1.727 -1.828,-1.727 -1.04,0 -1.827,0.66 -1.827,1.727 l -1.099,9.775 c 0,1.067 1.26,2.833 2.926,2.833 1.627,0 2.927,-1.792 2.927,-2.833 l -1.099,-9.775"
         id="path3247"
         style="fill:#ffffff;fill-opacity:1;fill-rule:nonzero;stroke:none" /></g></g></svg>