<?xml version="1.0" encoding="UTF-8" standalone="no"?>
<!-- Generator: Adobe Illustrator 21.0.0, SVG Export Plug-In . SVG Version: 6.00 Build 0)  -->

<svg
   xmlns:dc="http://purl.org/dc/elements/1.1/"
   xmlns:cc="http://creativecommons.org/ns#"
   xmlns:rdf="http://www.w3.org/1999/02/22-rdf-syntax-ns#"
   xmlns:svg="http://www.w3.org/2000/svg"
   xmlns="http://www.w3.org/2000/svg"
   xmlns:xlink="http://www.w3.org/1999/xlink"
   xmlns:sodipodi="http://sodipodi.sourceforge.net/DTD/sodipodi-0.dtd"
   xmlns:inkscape="http://www.inkscape.org/namespaces/inkscape"
   version="1.1"
   id="Layer_1"
   x="0px"
   y="0px"
   viewBox="0 0 91.7 35"
   xml:space="preserve"
   inkscape:version="0.91 r13725"
   sodipodi:docname="Caution.svg"
   width="91.699997"
   height="35"><metadata
     id="metadata51"><rdf:RDF><cc:Work
         rdf:about=""><dc:format>image/svg+xml</dc:format><dc:type
           rdf:resource="http://purl.org/dc/dcmitype/StillImage" /><dc:title></dc:title></cc:Work></rdf:RDF></metadata><defs
     id="defs49" /><sodipodi:namedview
     pagecolor="#ffffff"
     bordercolor="#666666"
     borderopacity="1"
     objecttolerance="10"
     gridtolerance="10"
     guidetolerance="10"
     inkscape:pageopacity="0"
     inkscape:pageshadow="2"
     inkscape:window-width="1366"
     inkscape:window-height="706"
     id="namedview47"
     showgrid="false"
     fit-margin-top="0"
     fit-margin-left="0"
     fit-margin-right="0"
     fit-margin-bottom="0"
     inkscape:zoom="3.1406762"
     inkscape:cx="45.849998"
     inkscape:cy="17.5"
     inkscape:window-x="-8"
     inkscape:window-y="-8"
     inkscape:window-maximized="1"
     inkscape:current-layer="Layer_1" /><style
     type="text/css"
     id="style3">
	.st0{fill:#FFFF00;}
	.st1{font-family:'sans-serif';}
	.st2{font-size:12.964px;}
	.st3{clip-path:url(#SVGID_2_);}
	.st4{clip-path:url(#SVGID_4_);fill-rule:evenodd;clip-rule:evenodd;fill:#FFFF00;}
	.st5{clip-path:url(#SVGID_4_);fill:#FFFF00;}
	.st6{clip-path:url(#SVGID_4_);fill-rule:evenodd;clip-rule:evenodd;}
	.st7{clip-path:url(#SVGID_4_);fill:none;stroke:#000000;stroke-width:6.000000e-02;stroke-miterlimit:10;}
	.st8{clip-path:url(#SVGID_4_);}
</style><g
     id="g5"><rect
       x="0.5"
       y="0.5"
       class="st0"
       width="90.699997"
       height="34"
       id="rect7"
       style="fill:#ffff00" /><path
       d="m 90.7,1 0,33 L 1,34 1,1 90.7,1 m 1,-1 -91.7,0 0,35 91.7,0 0,-35 0,0 z"
       id="path9"
       inkscape:connector-curvature="0" /></g><text
     class="st1 st2"
     id="text11"
     style="font-size:12.96399975px;font-family:sans-serif"
     x="26.783199"
     y="22.1056">CAUTION</text>
<g
     id="g13"><defs
       id="defs15"><rect
         id="SVGID_1_"
         x="5.1999998"
         y="9.8000002"
         width="18.4"
         height="15.5" /></defs><clipPath
       id="SVGID_2_"><use
         xlink:href="#SVGID_1_"
         style="overflow:visible"
         id="use19"
         x="0"
         y="0"
         width="100%"
         height="100%" /></clipPath><g
       class="st3"
       id="g21"
       clip-path="url(#SVGID_2_)"><defs
         id="defs23"><rect
           id="SVGID_3_"
           x="-333.70001"
           y="-79.300003"
           width="612"
           height="792" /></defs><clipPath
         id="SVGID_4_"><use
           xlink:href="#SVGID_3_"
           style="overflow:visible"
           id="use27"
           x="0"
           y="0"
           width="100%"
           height="100%" /></clipPath><polyline
         class="st4"
         points="10.6,17.2 8,21.5 7.6,22.1 7.5,22.2 7.5,22.4 7.4,22.5 7.5,22.7 7.5,22.8 7.6,22.9 7.6,23 7.7,23.1     7.8,23.1 8,23.3 8.2,23.3 8.3,23.3 20,23.3 20.1,23.3 20.3,23.3 20.4,23.2 20.5,23.1 20.6,23.1 20.6,23 20.7,22.9 20.8,22.8     20.8,22.7 20.8,22.3 20.8,22.2 20.7,22.1 20.3,21.5 17.8,17.2 15.1,12.9 14.8,12.3 14.6,12 14.5,12 14.5,11.9 14.4,11.9     14.3,11.9 14.2,11.8 14,11.8 14,11.9 13.9,11.9 13.8,11.9 13.7,12 13.7,12 13.6,12.3 13.2,12.9 10.6,17.2   "
         id="polyline29"
         clip-path="url(#SVGID_4_)"
         style="clip-rule:evenodd;fill:#ffff00;fill-rule:evenodd" /><polyline
         class="st5"
         points="12.3,18.2 9.7,22.5 9.7,22.7 9.2,23.3 9.4,23 9.3,23.1 9.5,22.2 9.5,22.4 9.3,23.3 9.2,23.4     9.2,21.6 9.3,21.8 9.5,22.7 9.5,22.8 8.9,21.5 9,21.5 9.4,22 9.4,22.1 8.5,21.2 8.6,21.3 9.2,21.7 9.2,21.8 8.7,21.3 8.9,21.5     8,21.3 8.2,21.3 8.8,21.3 9,21.4 8.3,21.3 20,21.3 19.1,21.5 19.2,21.5 20.1,21.3 20.3,21.3 19.4,21.5 19.5,21.4 19,21.8     19.1,21.8 19.6,21.3 19.7,21.3 19.2,21.7 19.3,21.6 18.8,22.1 18.9,22 19.3,21.5 19.4,21.5 19,21.9 19,21.8 18.8,22.7 18.8,22.3     19.4,23.7 19.4,23.7 19,23.1 18.9,23 19,23.1 18.7,22.5 18.6,22.5 16,18.2 16.1,18.3 13.4,14 13.4,13.9 16.9,11.9 19.5,16.2     22.1,20.5 22.4,21.1 22.5,21.2 22.6,21.3 22.2,20.9 22.3,20.9 22.9,22.3 22.9,22.7 22.6,23.6 22.6,23.7 22.2,24.3 22.1,24.3     22.5,23.8 22.4,23.9 22.1,24.5 22,24.5 21.5,24.9 21.4,24.9 21.9,24.6 21.8,24.6 21.3,25 21.2,25.1 20.3,25.3 20.1,25.3 21,25.1     20.9,25.1 20,25.4 8.3,25.4 7.7,25.2 7.6,25.2 8.2,25.3 8,25.3 7.1,25.1 7,25 6.9,24.9 6.4,24.6 6.4,24.5 6.8,24.9 6.7,24.8     5.8,23.9 5.8,23.8 6.2,24.3 6.1,24.3 5.5,22.8 5.5,22.7 5.7,23.6 5.6,23.4 5.6,21.6 5.7,21.5 5.5,22.4 5.5,22.2 5.7,21.3     5.8,21.2 5.9,21 6.4,20.4 6.2,20.5 8.8,16.2   "
         id="polyline31"
         clip-path="url(#SVGID_4_)"
         style="fill:#ffff00" /><polyline
         class="st5"
         points="13.4,13.9 13.1,13.3 13,13.2 12.9,13.1 12.8,12.9 13.7,13.8 13.6,13.8 13.1,13.4 13.1,13.4 13,13.3     14.4,13.9 14.3,13.9 13.4,13.7 13.3,13.6 14.2,13.8 14,13.8 15.5,13.2 15.4,13.3 14,13.9 13.9,13.9 14.8,13.7 14.7,13.7     15.2,13.4 15.2,13.4 15.1,13.5 15.5,12.9 15.3,13.3 14.9,13.9 14.9,14 12.3,18.3 12.3,18.2 8.8,16.2 8.9,16.2 11.5,11.9     11.9,11.3 11.8,11.4 11.9,11.1 12.3,10.7 12.4,10.6 12.4,10.5 12.9,10.1 13,10.1 13.9,9.9 14,9.9 12.6,10.5 12.7,10.4 14,9.8     14.2,9.8 15.1,10 15.2,10.1 14.3,9.9 14.4,9.9 15.8,10.5 15.9,10.5 16,10.6 15.4,10.2 15.5,10.2 16.4,11.1 16.6,11.4 16.5,11.3     16.9,11.9   "
         id="polyline33"
         clip-path="url(#SVGID_4_)"
         style="fill:#ffff00" /><polyline
         class="st6"
         points="13.7,18.1 13.5,16.2 13.5,16 13.6,15.5 13.7,15.2 14,15 14.3,14.9 14.6,15 14.9,15.2 15.1,15.5     15.2,16 15.1,16.2 14.8,20 14.8,20.2 13.9,20.2 13.9,20 13.7,18.1   "
         id="polyline35"
         clip-path="url(#SVGID_4_)"
         style="clip-rule:evenodd;fill-rule:evenodd" /><polyline
         class="st7"
         points="13.7,18.1 13.5,16.2 13.5,16 13.6,15.5 13.7,15.2 14,15 14.3,14.9 14.6,15 14.9,15.2 15.1,15.5     15.2,16 15.1,16.2 14.9,18.1 14.8,20 14.8,20.2 14.7,20.2 14.3,20.2 14,20.2 13.9,20.2 13.9,20 13.7,18.1   "
         id="polyline37" /><polyline
         class="st6"
         points="15.1,21.3 15,21 14.9,20.8 14.6,20.7 14.3,20.6 14,20.7 13.8,20.8 13.7,21 13.6,21.3 13.7,21.6     13.8,21.9 14,22 14.3,22.1 14.6,22 14.9,21.9 15,21.6 15.1,21.3   "
         id="polyline39"
         clip-path="url(#SVGID_4_)"
         style="clip-rule:evenodd;fill-rule:evenodd" /><polyline
         class="st7"
         points="15.1,21.3 15,21 14.9,20.8 14.6,20.7 14.3,20.6 14,20.7 13.8,20.8 13.7,21 13.6,21.3 13.7,21.6     13.8,21.9 14,22 14.3,22.1 14.6,22 14.9,21.9 15,21.6 15.1,21.3   "
         id="polyline41" /><polyline
         class="st8"
         points="11.1,17.4 8.5,21.8 8.4,21.8 8,22.4 8,22.2 8,22.5 8,22.5 7.9,22.7 7.9,22.4 8,22.7 8,22.8     7.9,22.5 8.2,22.8 8.2,22.8 8.4,22.9 8.2,22.8 20.3,22.8 20.1,22.9 20.6,22.7 20.5,22.7 20.6,22.6 20.5,22.8 20.5,22.7 20.6,22.4     20.6,22.7 20.5,22.5 20.5,22.5 20.5,22.2 20.5,22.4 20.2,21.7 20.2,21.8 17.5,17.4 14.8,13 14.5,12.4 14.5,12.3 14.3,12.1     14.5,12.3 14.3,12.2 14.5,12.2 14.3,12.2 14.2,12.2 14,12.1 14.5,12.1 14.1,12.2 14.3,12.1 14.2,12.2 14.3,12.1 14.2,12.3     14.1,12.4 13.7,13 13.7,13 11.1,17.4 10.2,16.8 12.8,12.5 12.8,12.4 13.3,11.8 13.3,11.9 13.4,11.5 13.6,11.4 13.8,11.3     14.2,11.1 14.5,11.2 14.6,11.3 14.6,11.2 14.8,11.3 14.9,11.3 15.1,11.4 15.2,11.6 15.4,11.9 15.7,12.5 18.4,16.8 18.3,16.8     21,21.2 21.1,21.2 21.4,21.9 21.4,22 21.5,22.2 21.5,22.4 21.5,22.7 21.5,22.9 21.5,23 21.4,23.1 21.3,23.3 21.2,23.4 21.1,23.6     20.6,23.8 20.3,23.9 8.2,23.9 7.9,23.8 7.7,23.7 7.7,23.6 7.3,23.4 7.1,23.1 7,23 7,22.9 7,22.7 7,22.4 7,22.2 7.1,22 7.1,21.9     7.6,21.2 10.2,16.8   "
         id="polyline43"
         clip-path="url(#SVGID_4_)" /><line
         class="st8"
         x1="11.1"
         y1="17.4"
         x2="10.2"
         y2="16.799999"
         id="line45"
         clip-path="url(#SVGID_4_)" /></g></g></svg>