<?xml version="1.0" encoding="UTF-8" standalone="no"?>
<!--Generated by ucancode v1.0-->

<svg
   xmlns:dc="http://purl.org/dc/elements/1.1/"
   xmlns:cc="http://creativecommons.org/ns#"
   xmlns:rdf="http://www.w3.org/1999/02/22-rdf-syntax-ns#"
   xmlns:svg="http://www.w3.org/2000/svg"
   xmlns="http://www.w3.org/2000/svg"
   xmlns:sodipodi="http://sodipodi.sourceforge.net/DTD/sodipodi-0.dtd"
   xmlns:inkscape="http://www.inkscape.org/namespaces/inkscape"
   width="17.469999"
   height="17.469999"
   shape-rendering="geometricPrecision"
   id="svg3055"
   version="1.1"
   inkscape:version="0.48.2 r9819"
   sodipodi:docname="result.svg">
  <metadata
     id="metadata3065">
    <rdf:RDF>
      <cc:Work
         rdf:about="">
        <dc:format>image/svg+xml</dc:format>
        <dc:type
           rdf:resource="http://purl.org/dc/dcmitype/StillImage" />
      </cc:Work>
    </rdf:RDF>
  </metadata>
  <defs
     id="defs3063" />
  <sodipodi:namedview
     pagecolor="#ffffff"
     bordercolor="#666666"
     borderopacity="1"
     objecttolerance="10"
     gridtolerance="10"
     guidetolerance="10"
     inkscape:pageopacity="0"
     inkscape:pageshadow="2"
     inkscape:window-width="640"
     inkscape:window-height="485"
     id="namedview3061"
     showgrid="false"
     fit-margin-top="0"
     fit-margin-left="0"
     fit-margin-right="0"
     fit-margin-bottom="0"
     inkscape:zoom="5.2485774"
     inkscape:cx="22.482283"
     inkscape:cy="-5.1522826"
     inkscape:window-x="0"
     inkscape:window-y="0"
     inkscape:window-maximized="0"
     inkscape:current-layer="svg3055" />
  <path
     style="fill:#51bbec;fill-opacity:1;fill-rule:nonzero;stroke:none"
     d="m 17.47,13.96 0,0 c 0,1.91 -1.6,3.51 -3.51,3.51 l -10.49,0 C 1.56,17.47 0,15.87 0,13.96 L 0,3.47 C 0,1.56 1.56,0 3.47,0 l 10.49,0 c 1.91,0 3.51,1.56 3.51,3.47 l 0,10.49 z"
     id="path3057"
     inkscape:connector-curvature="0" />
  <path
     style="fill:#fefefe;fill-opacity:1;fill-rule:nonzero;stroke:none"
     d="m 14.92,4.6 0,0 c -0.64,-0.63 -1.7,-0.63 -2.38,0 L 7.62,9.53 4.89,6.77 C 4.22,6.13 3.15,6.13 2.52,6.77 1.88,7.4 1.88,8.47 2.52,9.14 l 3.93,3.93 c 0.28,0.29 0.64,0.43 1.03,0.46 0,0 0.03,0 0.03,0 0.04,0 0.07,0.04 0.11,0.04 0.1,0 0.21,-0.04 0.32,-0.04 0,0 0,0 0.03,0 0.07,-0.03 0.18,-0.07 0.25,-0.1 0.04,0 0.04,0 0.04,0 0.03,0 0.03,0 0.07,-0.04 0.17,-0.07 0.35,-0.18 0.49,-0.32 l 0,0 6.1,-6.09 c 0.64,-0.67 0.64,-1.74 0,-2.38 z"
     id="path3059"
     inkscape:connector-curvature="0" />
</svg>
