<?xml version="1.0" encoding="UTF-8" standalone="no"?>
<!-- Created with Inkscape (http://www.inkscape.org/) -->

<svg
   xmlns:dc="http://purl.org/dc/elements/1.1/"
   xmlns:cc="http://creativecommons.org/ns#"
   xmlns:rdf="http://www.w3.org/1999/02/22-rdf-syntax-ns#"
   xmlns:svg="http://www.w3.org/2000/svg"
   xmlns="http://www.w3.org/2000/svg"
   version="1.1"
   width="31.231251"
   height="31.23"
   id="svg2997"
   xml:space="preserve"><metadata
     id="metadata3003"><rdf:RDF><cc:Work
         rdf:about=""><dc:format>image/svg+xml</dc:format><dc:type
           rdf:resource="http://purl.org/dc/dcmitype/StillImage" /><dc:title></dc:title></cc:Work></rdf:RDF></metadata><defs
     id="defs3001"><clipPath
       id="clipPath3011"><path
         d="m 0,791.28 595.2,0 0,-791.04 -595.2,0 0,791.04 z"
         id="path3013" /></clipPath><clipPath
       id="clipPath3029"><path
         d="m 0,791.28 595.2,0 0,-791.04 -595.2,0 0,791.04 z"
         id="path3031" /></clipPath><clipPath
       id="clipPath3225"><path
         d="m 114.54,533.72 35.68,0 0,-25.13 -35.68,0 0,25.13 z"
         id="path3227" /></clipPath><clipPath
       id="clipPath3241"><path
         d="m 154.22,533.72 35.69,0 0,-25.13 -35.69,0 0,25.13 z"
         id="path3243" /></clipPath><clipPath
       id="clipPath3257"><path
         d="m 193.91,533.72 35.68,0 0,-25.2 -35.68,0 0,25.2 z"
         id="path3259" /></clipPath></defs><g
     transform="matrix(1.25,0,0,-1.25,-143.16875,667.15125)"
     id="g3005"><g
       id="g4316"><path
         d="m 114.54,508.74 24.98,0 0,24.98 -24.98,0 0,-24.98 z"
         id="path3215"
         style="fill:#ffffff;fill-opacity:1;fill-rule:nonzero;stroke:none" /><path
         d="m 134.522,533.721 -14.99,0 c -2.748,0 -4.997,-2.249 -4.997,-4.998 l 0,-14.99 c 0,-2.747 2.249,-4.996 4.997,-4.996 l 14.99,0 c 2.748,0 4.997,2.249 4.997,4.996 l 0,14.99 c 0,2.749 -2.249,4.998 -4.997,4.998 z"
         id="path4314"
         style="fill:#7fcc28;fill-opacity:1;fill-rule:nonzero;stroke:none" /><path
         d="m 122.682,517.464 -4.8,10.123 c -0.296,0.592 -0.148,1.297 0.423,1.628 l 3.285,1.897 c 0.573,0.33 1.258,0.104 1.622,-0.446 l 6.366,-9.219 c 0.364,-0.551 0.196,-1.27 -0.377,-1.601 l -4.945,-2.855 c -0.572,-0.332 -1.28,-0.119 -1.574,0.473 z"
         id="path4312"
         style="fill:#ffffff;fill-opacity:1;fill-rule:nonzero;stroke:none" /><path
         d="m 127.022,514.065 -0.332,0.576 c -0.459,0.797 -1.27,1.312 -2.138,1.625 0.032,0.016 0.066,0.026 0.096,0.043 l 4.946,2.856 c 0.032,0.018 0.057,0.042 0.086,0.061 -0.162,-0.907 -0.121,-1.867 0.338,-2.664 l 0.333,-0.576 c 0.165,-0.286 0.066,-0.655 -0.221,-0.819 l -2.287,-1.321 c -0.286,-0.166 -0.655,-0.067 -0.821,0.219 z"
         id="path4310"
         style="fill:#ffffff;fill-opacity:1;fill-rule:nonzero;stroke:none" /><path
         d="m 130.842,512.639 -1.406,-0.257 c -0.302,-0.062 -0.47,-0.076 -0.624,0.191 l -0.291,0.506 c -0.154,0.267 -0.125,0.375 0.14,0.528 l 1.267,0.731 c 0.266,0.155 0.373,0.126 0.528,-0.141 l 0.666,-1.155 c 0.155,-0.266 0.022,-0.342 -0.28,-0.403 z"
         id="path4308"
         style="fill:#ffffff;fill-opacity:1;fill-rule:nonzero;stroke:none" /><path
         d="m 136.321,512.453 -3.187,0 c -0.384,0 -0.694,0.312 -0.694,0.694 0,0.384 0.31,0.694 0.694,0.694 l 3.187,0 c 0.383,0 0.693,-0.31 0.693,-0.694 0,-0.382 -0.31,-0.694 -0.693,-0.694"
         id="path3231"
         style="fill:#ffffff;fill-opacity:1;fill-rule:nonzero;stroke:none" /><path
         d="m 122.316,529.789 c -0.11,0.159 -0.323,0.206 -0.489,0.11 l -2.735,-1.577 c -0.177,-0.102 -0.237,-0.329 -0.134,-0.506 0.102,-0.178 0.328,-0.239 0.506,-0.137 l -0.001,10e-4 2.439,1.406 5.554,-8.024 c 0.071,-0.104 0.187,-0.16 0.304,-0.16 0.073,0 0.147,0.021 0.211,0.066 0.169,0.116 0.21,0.347 0.094,0.515 l -5.749,8.306"
         id="path3219"
         style="fill:#7fcc28;fill-opacity:1;fill-rule:nonzero;stroke:none" /></g></g></svg>