<?xml version="1.0" encoding="UTF-8"?>
<!DOCTYPE svg PUBLIC "-//W3C//DTD SVG 1.1//EN" "http://www.w3.org/Graphics/SVG/1.1/DTD/svg11.dtd">
<svg xmlns="http://www.w3.org/2000/svg" xmlns:xlink="http://www.w3.org/1999/xlink" version="1.1" width="284px" height="156px" viewBox="-0.5 -0.5 284 156">
  <defs/>
  <g id="af_item2">
    <g id="background_af_item2">
      <path d="M 75 63 L 108.63 63" fill="none" stroke="black" pointer-events="stroke"/>
      <path d="M 113.88 63 L 106.88 66.5 L 108.63 63 L 106.88 59.5 Z" fill="black" stroke="black"/>
      <path d="M 172 90 L 208.63 90" fill="none" stroke="black" pointer-events="stroke"/>
      <path d="M 213.88 90 L 206.88 93.5 L 208.63 90 L 206.88 86.5 Z" fill="black" stroke="black"/>
      <path d="M 115 50 L 175 90 L 115 130 Z" fill="#007fff" stroke="#001dbc"/>
      <rect x="223" y="80" width="60" height="20" fill="none" stroke="none"/>
      <path d="M 75 120 L 108.63 120" fill="none" stroke="black" pointer-events="stroke"/>
      <path d="M 113.88 120 L 106.88 123.5 L 108.63 120 L 106.88 116.5 Z" fill="black" stroke="black"/>
      <path d="M 49.16 36.09 L 58.55 36.09 L 60.64 31.09 L 64.82 41.09 L 68.99 31.09 L 73.16 41.09 L 77.34 31.09 L 81.51 41.09 L 85.68 31.09 L 89.86 41.09 L 91.95 36.09 L 101.34 36.09" fill="none" stroke="black" transform="rotate(90,75.25,36.09)"/>
      <path d="M 49.16 88.26 L 58.55 88.26 L 60.64 83.26 L 64.82 93.26 L 68.99 83.26 L 73.16 93.26 L 77.34 83.26 L 81.51 93.26 L 85.68 83.26 L 89.86 93.26 L 91.95 88.26 L 101.34 88.26" fill="none" stroke="black" transform="rotate(90,75.25,88.26)"/>
      <path d="M 64 144.57 L 75.25 155 L 86.5 144.57 Z" fill="#e6e6e6" stroke="black"/>
      <path d="M 75.25 139.35 L 75.25 144.57" fill="none" stroke="black"/>
      <path d="M 75.25 139.35 L 75.25 114.35" fill="none" stroke="black"/>
      <path d="M 15 10.58 L 75 10.58" fill="none" stroke="black"/>
      <path d="M 15 -14 L 35 -14 L 35 27.78 L 25 36 L 15 27.78 Z" fill="#e6e6e6" stroke="black" transform="rotate(270,25,11)"/>
    </g>
    
    <g id="labels_af_item2">
      <text id="label_input1_af_item2" x="23.5" y="14.5" fill="black" font-family="Helvetica" text-anchor="middle" font-size="12px">Vbus</text>
      <text id="label_rtop_af_item2" x="67" y="40" fill="black" font-family="Helvetica" text-anchor="end" font-size="12px">
        R
        <tspan dx="-2" dy="3">TOP</tspan>
      </text>
      <text id="label_rbottom_af_item2" x="67" y="94" fill="black" font-family="Helvetica" text-anchor="end" font-size="12px">
        R
        <tspan dx="-2" dy="3">BOTTOM</tspan>
      </text>
      <text id="label_output_af_item2" x="224" y="94" fill="black" font-family="Helvetica" font-size="12px" text-anchor="start">VdcSens</text>
    </g>
	<g id="tooltip" visibility="hidden">
    <rect width="80" height="24" fill="#FFFDD0" rx="2" ry="2" stroke="black" stroke-width="0.3"/>
    <text x="4" y="15" font-size="10" font-weight="bold" fill="black" lengthAdjust="spacingAndGlyphs" font-family="Arial">t</text>
  </g>
  </g>
</svg>
