<?xml version="1.0" encoding="UTF-8"?>
<!-- Do not edit this file with editors other than diagrams.net -->
<!DOCTYPE svg PUBLIC "-//W3C//DTD SVG 1.1//EN" "http://www.w3.org/Graphics/SVG/1.1/DTD/svg11.dtd">
<svg xmlns="http://www.w3.org/2000/svg" xmlns:xlink="http://www.w3.org/1999/xlink" version="1.1"
    width="780px" height="235px" viewBox="-0.5 -0.5 780 235" style="background-color: rgb(255, 255, 255);">

    <g>
        <g id= "box-current-observer">
            <rect x="47" y="0" width="120" height="186" rx="7.2" ry="7.2" fill="#0050ef" stroke="#001dbc" pointer-events="all" />
            <text x="107" y="97" fill="#ffffff" font-family="Helvetica" font-size="12px" text-anchor="middle">Sliding Mode Current</text>
            <text x="107" y="115" fill="#ffffff" font-family="Helvetica" font-size="12px" text-anchor="middle">Observer</text>
        </g>

        <g id= "box-subtractor">
            <ellipse cx="224.5" cy="95.5" rx="18.5" ry="18.5" fill="#647687" stroke="#314354" pointer-events="all" />
            <text x="204" y="89" fill="rgb(0, 0, 0)" font-family="Helvetica" font-size="13px" text-anchor="middle">+</text>
            <text x="215" y="119" fill="rgb(0, 0, 0)" font-family="Helvetica" font-size="13px" text-anchor="middle">-</text>
        </g>

        <g id= "box-switching-function">
            <rect x="283" y="11" width="130" height="176" rx="7.8" ry="7.8" fill="#0050ef" stroke="#001dbc" pointer-events="all" />
            <text x="348" y="175" fill="#ffffff" font-family="Helvetica" font-size="12px" text-anchor="middle">Switching Function</text>

            <path d="M 347 154 L 347 40.37" fill="none" stroke="#ffffff" stroke-miterlimit="10" pointer-events="stroke" />
            <path d="M 347 35.12 L 350.5 42.12 L 347 40.37 L 343.5 42.12 Z" fill="#ffffff" stroke="#ffffff" stroke-miterlimit="10" pointer-events="all" />
            <path d="M 317 94 L 380.63 94" fill="none" stroke="#ffffff" stroke-miterlimit="10" pointer-events="stroke" />
            <path d="M 385.88 94 L 378.88 97.5 L 380.63 94 L 378.88 90.5 Z" fill="#ffffff" stroke="#ffffff" stroke-miterlimit="10" pointer-events="all" />
            <path d="M 327 134 L 367 54" fill="none" stroke="#ffffff" stroke-miterlimit="10" pointer-events="stroke" />
            <path d="M 367 54 L 387 54" fill="none" stroke="#ffffff" stroke-miterlimit="10" pointer-events="stroke" />
            <path d="M 307 134 L 327 134" fill="none" stroke="#ffffff" stroke-miterlimit="10" pointer-events="stroke" />
        </g>

        <g id= "box-bemf-observer">
            <rect x="454" y="35" width="120" height="123" rx="7.2" ry="7.2" fill="#0050ef" stroke="#001dbc" pointer-events="all" />
            <text x="514" y="100" fill="#ffffff" font-family="Helvetica" font-size="12px" text-anchor="middle">Back EMF</text>
            <text x="514" y="118" fill="#ffffff" font-family="Helvetica" font-size="12px" text-anchor="middle">Observer</text>
        </g>

        <g id= "box-flux-angle_calculator">
            <rect x="612" y="31" width="120" height="123" rx="7.2" ry="7.2" fill="#0050ef" stroke="#001dbc" pointer-events="all" />
            <text x="672" y="96" fill="#ffffff" font-family="Helvetica" font-size="12px" text-anchor="middle">Flux Angle</text>
            <text x="672" y="114" fill="#ffffff" font-family="Helvetica" font-size="12px" text-anchor="middle">Calculation</text>
        </g>

        <g id= "connectors">
            <path d="M 7 42 L 40.63 42" fill="none" stroke="#000000" stroke-miterlimit="10" pointer-events="stroke" />
            <path d="M 45.88 42 L 38.88 45.5 L 40.63 42 L 38.88 38.5 Z" fill="#000000" stroke="#000000" stroke-miterlimit="10" pointer-events="all" />
            <path d="M 7 92 L 40.63 92" fill="none" stroke="#000000" stroke-miterlimit="10" pointer-events="stroke" />
            <path d="M 45.88 92 L 38.88 95.5 L 40.63 92 L 38.88 88.5 Z" fill="#000000" stroke="#000000" stroke-miterlimit="10" pointer-events="all" />
            <path d="M 168 96 L 201.63 96" fill="none" stroke="#000000" stroke-miterlimit="10" pointer-events="stroke" />
            <path d="M 206.88 96 L 199.88 99.5 L 201.63 96 L 199.88 92.5 Z" fill="#000000" stroke="#000000" stroke-miterlimit="10" pointer-events="all" />
            <path d="M 242 96 L 275.63 96" fill="none" stroke="#000000" stroke-miterlimit="10" pointer-events="stroke" />
            <path d="M 280.88 96 L 273.88 99.5 L 275.63 96 L 273.88 92.5 Z" fill="#000000" stroke="#000000" stroke-miterlimit="10" pointer-events="all" />
            <path d="M 414 96 L 447.63 96" fill="none" stroke="#000000" stroke-miterlimit="10" pointer-events="stroke" />
            <path d="M 452.88 96 L 445.88 99.5 L 447.63 96 L 445.88 92.5 Z" fill="#000000" stroke="#000000" stroke-miterlimit="10" pointer-events="all" />
            <path d="M 573 96 L 606.63 96" fill="none" stroke="#000000" stroke-miterlimit="10" pointer-events="stroke" />
            <path d="M 611.88 96 L 604.88 99.5 L 606.63 96 L 604.88 92.5 Z" fill="#000000" troke="#000000" stroke-miterlimit="10" pointer-events="all" /> 
            <path d="M 730 73 L 763.63 73" fill="none" stroke="#000000" stroke-miterlimit="10" pointer-events="stroke" />
            <path d="M 768.88 73 L 761.88 76.5 L 763.63 73 L 761.88 69.5 Z" fill="#000000" stroke="#000000" stroke-miterlimit="10" pointer-events="all" />
            <path d="M 731 116 L 764.63 116" fill="none" stroke="#000000" stroke-miterlimit="10" pointer-events="stroke" />
            <path d="M 769.88 116 L 762.88 119.5 L 764.63 116 L 762.88 112.5 Z" fill="#000000" stroke="#000000" stroke-miterlimit="10" pointer-events="all" />
            <path d="M 7 233 L 7 93" fill="none" stroke="#000000" stroke-miterlimit="10" pointer-events="stroke" />
            <path d="M 597 233 L 597 96" fill="none" stroke="#000000" stroke-miterlimit="10" pointer-events="stroke" />
            <path d="M 7 233 L 597 233" fill="none" stroke="#000000" stroke-miterlimit="10" pointer-events="stroke" />
            <path d="M 27 145 L 41.63 145" fill="none" stroke="#000000" stroke-miterlimit="10" pointer-events="stroke" />
            <path d="M 46.88 145 L 39.88 148.5 L 41.63 145 L 39.88 141.5 Z" fill="#000000" stroke="#000000" stroke-miterlimit="10" pointer-events="all" />
            <path d="M 27 212 L 435 212" fill="none" stroke="#000000" stroke-miterlimit="10" pointer-events="stroke" />
            <path d="M 435 212 L 435 96" fill="none" stroke="#000000" stroke-miterlimit="10" pointer-events="stroke" />
            <path d="M 27 213 L 27 145" fill="none" stroke="#000000" stroke-miterlimit="10" pointer-events="stroke" />
            <path d="M 224 153 L 224 120.37" fill="none" stroke="rgb(0, 0, 0)" stroke-miterlimit="10" pointer-events="stroke" />
            <path d="M 224 115.12 L 227.5 122.12 L 224 120.37 L 220.5 122.12 Z" fill="rgb(0, 0, 0)" stroke="rgb(0, 0, 0)" stroke-miterlimit="10" pointer-events="all" />
        </g>
        <g id= "inputs">
            <text x="15" y="28" font-size="12px" font-family="Asana Math">
                <tspan>V</tspan>
                <tspan baseline-shift="sub">αβ</tspan>
            </text>
            <text x="177" y="83" font-size="12px" font-family="Asana Math">
                <tspan>i</tspan>
                <tspan baseline-shift="sub">αβ</tspan>
            </text>
            <path d="M 175 74 L 179 72 L 183 74" stroke="black" fill="none" />

            <text x="200" y="145" font-size="12px" font-family="Asana Math">
                <tspan>i</tspan>
                <tspan baseline-shift="sub">αβ</tspan>
            </text>

            <text x="420" y="83" font-size="12px" font-family="Asana Math">
                <tspan>Z</tspan>
                <tspan baseline-shift="sub">αβ</tspan>
            </text>

            <text x="580" y="83" font-size="12px" font-family="Asana Math">
                <tspan>E</tspan>
                <tspan baseline-shift="sub">αβ</tspan>
            </text>
        </g>

        <g id= "outputs">
            <text x="775" y="75" font-size="12px" font-family="Helvetica">
                <tspan>Electrical Angle ( Rad )</tspan>
            </text>

            <text x="775" y="119" font-size="12px" font-family="Helvetica">
                <tspan>Mechanical Speed ( RPM )</tspan>
            </text>
            
        </g>
		<g id="tooltip" visibility="hidden">
			<rect width="80" height="24" fill="#FFFDD0" rx="2" ry="2" stroke="black" stroke-width="0.3"/>
			<text x="4" y="15" font-size="10" font-weight="bold" fill="black" lengthAdjust="spacingAndGlyphs" font-family="Arial">t</text>
		</g>
    </g>
</svg>