<?xml version="1.0" encoding="UTF-8"?>
<!-- Do not edit this file with editors other than diagrams.net -->
<!DOCTYPE svg PUBLIC "-//W3C//DTD SVG 1.1//EN" "http://www.w3.org/Graphics/SVG/1.1/DTD/svg11.dtd">
<svg xmlns="http://www.w3.org/2000/svg" xmlns:xlink="http://www.w3.org/1999/xlink" version="1.1"
    width="714px" height="182px" viewBox="-0.5 -0.5 714 182">
	<style>
.boxColor { fill:#1565C0 }
.boxTextColor { fill:White }
.boxLineColor { stroke:White; stroke-width:2 }
</style>
    <g>
        <g id= "blocks">
            <g id= "box-bemf-observer">
                <rect x="47" y="10" width="119" height="150" rx="7.14" ry="7.14" class="boxColor"  stroke="#001dbc" pointer-events="all" />
                <text x="60" y="89" font-size="14px" font-family="Helvetica" fill="#ffffff">
                    <tspan>BEMF Observer</tspan>
                </text>
            </g>

            <g id= "box-ealpha-filter">
                <rect x="206" y="23.83" width="60" height="58.7" rx="3.52" ry="3.52" class="boxColor"  stroke="#001dbc" pointer-events="all" />

                <text x="220" y="77" font-size="13px" font-family="Helvetica" fill="#ffffff">
                    <tspan>Filter</tspan>
                </text>
                <path d="M 217 59.35 L 217 30.94" fill="none" stroke="#ffffff" stroke-miterlimit="10" pointer-events="all" />
                <path d="M 217 25.69 L 219.33 32.69 L 217 30.94 L 214.67 32.69 Z" fill="#ffffff" stroke="#ffffff" stroke-miterlimit="10" pointer-events="all" />
                <path d="M 217 58.92 L 252.63 59.29" fill="none" stroke="#ffffff" stroke-miterlimit="10" pointer-events="all" />
                <path d="M 257.88 59.34 L 250.86 61.6 L 252.63 59.29 L 250.91 56.94 Z" fill="#ffffff" stroke="#ffffff" stroke-miterlimit="10" pointer-events="all" />
                <path d="M 217 37.61 L 227 37.61 Q 237 37.61 241.18 46.7 L 247 59.35" fill="none" stroke="#ffffff" stroke-miterlimit="10" pointer-events="all" />
            </g>

            <g id= "box-ebeta-filter">
                <rect x="207" y="91.83" width="60" height="58.7" rx="3.52" ry="3.52" class="boxColor"  stroke="#001dbc" pointer-events="all" />
                <text x="220" y="145" font-size="13px" font-family="Helvetica" fill="#ffffff">
                    <tspan>Filter</tspan>
                </text>
                <path d="M 218 127.35 L 218 98.94" fill="none" stroke="#ffffff" stroke-miterlimit="10" pointer-events="all" />
                <path d="M 218 93.69 L 220.33 100.69 L 218 98.94 L 215.67 100.69 Z" fill="#ffffff" stroke="#ffffff" stroke-miterlimit="10" pointer-events="all" />
                <path d="M 218 126.92 L 253.63 127.29" fill="none" stroke="#ffffff" stroke-miterlimit="10" pointer-events="all" />
                <path d="M 258.88 127.34 L 251.86 129.6 L 253.63 127.29 L 251.91 124.94 Z" fill="#ffffff" stroke="#ffffff" stroke-miterlimit="10" pointer-events="all" />
                <path d="M 218 105.61 L 228 105.61 Q 238 105.61 242.18 114.7 L 248 127.35" fill="none" stroke="#ffffff" stroke-miterlimit="10" pointer-events="all" />
            </g>
        
            <g id= "box-flux-angle-calculation">
                <rect x="305" y="18" width="108" height="123" rx="6.48" ry="6.48" class="boxColor"  stroke="#001dbc" pointer-events="all" />

                <text x="330" y="83" font-size="14px" font-family="Helvetica" fill="#ffffff">
                    <tspan>Flux Angle</tspan>
                </text>
                <text x="328" y="100" font-size="14px" font-family="Helvetica" fill="#ffffff">
                    <tspan>Calculation</tspan>
                </text>
            </g>

            <g id= "box-speed-filter">
                <rect x="453" y="76.65" width="60" height="58.7" rx="3.52" ry="3.52" class="boxColor"  stroke="#001dbc" pointer-events="all" />
                <text x="468" y="129" font-size="13px" font-family="Helvetica" fill="#ffffff">
                    <tspan>Filter</tspan>
                </text>
                <path d="M 464 112.17 L 464 83.76" fill="none" stroke="#ffffff" stroke-miterlimit="10" pointer-events="all" /> -->
                <path d="M 464 78.51 L 466.33 85.51 L 464 83.76 L 461.67 85.51 Z" fill="#ffffff" stroke="#ffffff" stroke-miterlimit="10" pointer-events="all" />
                <path d="M 464 111.74 L 499.63 112.11" fill="none" stroke="#ffffff" stroke-miterlimit="10" pointer-events="all" />
                <path d="M 504.88 112.16 L 497.86 114.42 L 499.63 112.11 L 497.91 109.76 Z" fill="#ffffff" stroke="#ffffff" stroke-miterlimit="10" pointer-events="all" />
                <path d="M 464 90.43 L 474 90.43 Q 484 90.43 488.18 99.52 L 494 112.17" fill="none" stroke="#ffffff" stroke-miterlimit="10" pointer-events="all" />
            </g>
        </g>

        <g id= "connectors">
            <path d="M 7 47 L 40.63 47" fill="none" stroke="#000000" stroke-miterlimit="10" pointer-events="stroke" />
            <path d="M 45.88 47 L 38.88 50.5 L 40.63 47 L 38.88 43.5 Z" fill="#000000" stroke="#000000" stroke-miterlimit="10" pointer-events="all" />
            <path d="M 8 123 L 41.63 123" fill="none" stroke="#000000" stroke-miterlimit="10" pointer-events="stroke" />
            <path d="M 46.88 123 L 39.88 126.5 L 41.63 123 L 39.88 119.5 Z" fill="#000000" stroke="#000000" stroke-miterlimit="10" pointer-events="all" />
            <path d="M 166 52 L 199.63 52" fill="none" stroke="#000000" stroke-miterlimit="10" pointer-events="stroke" />
            <path d="M 204.88 52 L 197.88 55.5 L 199.63 52 L 197.88 48.5 Z" fill="#000000" stroke="#000000" stroke-miterlimit="10" pointer-events="all" />
            <path d="M 266 52 L 299.63 52" fill="none" stroke="#000000" stroke-miterlimit="10" pointer-events="stroke" />
            <path d="M 304.88 52 L 297.88 55.5 L 299.63 52 L 297.88 48.5 Z" fill="#000000" stroke="#000000" stroke-miterlimit="10" pointer-events="all" />
            <path d="M 412 60 L 526.63 60" fill="none" stroke="#000000" stroke-miterlimit="10" pointer-events="stroke" />
            <path d="M 531.88 60 L 524.88 63.5 L 526.63 60 L 524.88 56.5 Z" fill="#000000" stroke="#000000" stroke-miterlimit="10" pointer-events="all" />
            <path d="M 413 103 L 446.63 103" fill="none" stroke="#000000" stroke-miterlimit="10" pointer-events="stroke" />
            <path d="M 451.88 103 L 444.88 106.5 L 446.63 103 L 444.88 99.5 Z" fill="#000000" stroke="#000000" stroke-miterlimit="10" pointer-events="all" />
            <path d="M 8 180 L 8 124" fill="none" stroke="#000000" stroke-miterlimit="10" pointer-events="stroke" />
            <path d="M 433 180 L 433 102" fill="none" stroke="#000000" stroke-miterlimit="10" pointer-events="stroke" />
            <path d="M 9 180 L 433 180" fill="none" stroke="#000000" stroke-miterlimit="10" pointer-events="stroke" />
            <path d="M 166 120 L 199.63 120" fill="none" stroke="#000000" stroke-miterlimit="10" pointer-events="stroke" />
            <path d="M 204.88 120 L 197.88 123.5 L 199.63 120 L 197.88 116.5 Z" fill="#000000" stroke="#000000" stroke-miterlimit="10" pointer-events="all" />
            <path d="M 264 119 L 297.63 119" fill="none" stroke="#000000" stroke-miterlimit="10" pointer-events="stroke" />
            <path d="M 302.88 119 L 295.88 122.5 L 297.63 119 L 295.88 115.5 Z" fill="#000000" stroke="#000000" stroke-miterlimit="10" pointer-events="all" />
            <path d="M 7 87 L 40.63 87" fill="none" stroke="#000000" stroke-miterlimit="10" pointer-events="stroke" />
            <path d="M 45.88 87 L 38.88 90.5 L 40.63 87 L 38.88 83.5 Z" fill="#000000" stroke="#000000" stroke-miterlimit="10" pointer-events="all" />
            <path d="M 513 101.66 L 526.63 101.89" fill="none" stroke="#000000" stroke-miterlimit="10" pointer-events="all" />
            <path d="M 531.88 101.98 L 524.82 105.36 L 526.63 101.89 L 524.94 98.36 Z" fill="#000000"  stroke="#000000" stroke-miterlimit="10" pointer-events="all" />
        </g>

        <g id= "inputs-outputs">
            <text x="7" y="30" font-size="14px" font-family="Asana Math">
                <tspan>V</tspan>
                <tspan baseline-shift="sub">αβ</tspan>
            </text>

            <text x="7" y="70" font-size="14px" font-family="Asana Math">
                <tspan>I</tspan>
                <tspan baseline-shift="sub">αβ</tspan>
            </text>

            <text x="538" y="64" font-size="14px" font-family="Asana Math">
                <tspan>Electrical Angle (Rad)</tspan>
            </text>

            <text x="538" y="106" font-size="14px" font-family="Asana Math">
                <tspan>Mechanical Speed (RPM)</tspan>
            </text>

        </g>
		<g id="tooltip" visibility="hidden">
			<rect width="80" height="24" fill="#FFFDD0" rx="2" ry="2" stroke="black" stroke-width="0.3"/>
			<text x="4" y="15" font-size="10" font-weight="bold" fill="black" lengthAdjust="spacingAndGlyphs" font-family="Arial">t</text>
		</g>
    </g>
</svg>