<?xml version="1.0" encoding="UTF-8"?>
<!DOCTYPE svg PUBLIC "-//W3C//DTD SVG 1.1//EN" "http://www.w3.org/Graphics/SVG/1.1/DTD/svg11.dtd">
<svg xmlns="http://www.w3.org/2000/svg" version="1.1" width="676px" height="316px" viewBox="-0.5 -0.5 676 316">
  <defs>
    <linearGradient x1="0%" y1="100%" x2="0%" y2="0%" id="gradient-box">
      <stop offset="0%" style="stop-color:#0050ef"/>
      <stop offset="100%" style="stop-color:#ffffff"/>
    </linearGradient>
  </defs>
  <g>
    <g id="background" pointer-events="none">
      <path d="M 220.57 172.75 L 284.2 172.4" fill="none" stroke="#000000"/>
      <path d="M 289.45 172.38 L 282.47 175.91 L 284.2 172.4 L 282.43 168.91 Z" fill="#000000" stroke="#000000"/>
      <path d="M 220.57 33.17 L 284.2 32.82" fill="none" stroke="#000000"/>
      <path d="M 289.45 32.8 L 282.47 36.33 L 284.2 32.82 L 282.43 29.33 Z" fill="#000000" stroke="#000000"/>
      <path d="M 29.94 161.38 L 93.57 161.03" fill="none" stroke="#000000"/>
      <path d="M 98.82 161.01 L 91.84 164.54 L 93.57 161.03 L 91.8 157.54 Z" fill="#000000" stroke="#000000"/>
      <path d="M 29.94 104.17 L 93.57 103.82" fill="none" stroke="#000000"/>
      <path d="M 98.82 103.8 L 91.84 107.33 L 93.57 103.82 L 91.8 100.33 Z" fill="#000000" stroke="#000000"/>
      <path d="M 29.94 41.38 L 93.57 41.03" fill="none" stroke="#000000"/>
      <path d="M 98.82 41.01 L 91.84 44.54 L 93.57 41.03 L 91.8 37.54 Z" fill="#000000" stroke="#000000"/>
      <path d="M 568.26 38.96 L 631.89 38.61" fill="none" stroke="#000000"/>
      <path d="M 637.14 38.59 L 630.16 42.12 L 631.89 38.61 L 630.12 35.12 Z" fill="#000000" stroke="#000000"/>
      <path d="M 410.09 169.86 L 483.31 169.6" fill="none" stroke="#000000"/>
      <path d="M 488.56 169.58 L 481.57 173.11 L 483.31 169.6 L 481.55 166.11 Z" fill="#000000" stroke="#000000"/>
      <path d="M 410.33 30.13 L 482.31 30.01" fill="none" stroke="#000000"/>
      <path d="M 487.56 30 L 480.57 33.51 L 482.31 30.01 L 480.56 26.51 Z" fill="#000000" stroke="#000000"/>
      <path d="M 219.94 99.63 L 283.57 99.28" fill="none" stroke="#000000"/>
      <path d="M 288.82 99.26 L 281.84 102.79 L 283.57 99.28 L 281.8 95.79 Z" fill="#000000" stroke="#000000"/>
      <path d="M 568.26 158.71 L 631.89 158.36" fill="none" stroke="#000000"/>
      <path d="M 637.14 158.34 L 630.16 161.87 L 631.89 158.36 L 630.12 154.87 Z" fill="#000000" stroke="#000000"/>
      <path d="M 568.26 159 L 601.37 159 Q 611.37 159 611.37 169 L 611.37 204 Q 611.37 214 601.37 214 L 538.37 214 Q 528.37 214 528.33 220.82 L 528.3 227.63" fill="none" stroke="#4d4d4d"/>
      <path d="M 528.27 232.88 L 524.8 225.86 L 528.3 227.63 L 531.8 225.9 Z" fill="#4d4d4d" stroke="#4d4d4d"/>
      <path d="M 568.26 273.96 L 631.89 273.61" fill="none" stroke="#000000"/>
      <path d="M 637.14 273.59 L 630.16 277.12 L 631.89 273.61 L 630.12 270.12 Z" fill="#000000" stroke="#000000"/>
      <g id="inputbox-qea">
        <rect x="0.37" y="26" width="30" height="30" fill="#f5f5f5" stroke="#666666"/>
        <path d="M 0.37 56 L 30.37 26" fill="none" stroke="#4d4d4d"/>
        <path d="M 30.37 56 L 0.37 26" fill="none" stroke="#4d4d4d"/>
      </g>
      <g id="inputbox-qeb">
        <rect x="0.37" y="89" width="30" height="30" fill="#f5f5f5" stroke="#666666"/>
        <path d="M 0.37 119 L 30.37 89" fill="none" stroke="#4d4d4d"/>
        <path d="M 30.37 119 L 0.37 89" fill="none" stroke="#4d4d4d"/>
      </g>
      <g id="inputbox-index">
        <rect x="0.37" y="146" width="30" height="30" fill="#f5f5f5" stroke="#666666"/>
        <path d="M 0.37 176 L 30.37 146" fill="none" stroke="#4d4d4d"/>
        <path d="M 30.37 176 L 0.37 146" fill="none" stroke="#4d4d4d"/>
      </g>
      <g id="text-qea">
        <rect x="40.55" y="19" width="40" height="20" fill="none" stroke="none"/>
      </g>
      <text id="text-index" x="61" y="33" fill="#000000" font-family="Verdana" font-size="12px" text-anchor="middle">QEA</text>
      <rect x="40.55" y="82.67" width="40" height="20" fill="none" stroke="none"/>
      <text id="text-qeb" x="61" y="96" fill="#000000" font-family="Verdana" font-size="12px" text-anchor="middle">QEB</text>
      <rect x="40.55" y="138.33" width="40" height="20" fill="none" stroke="none"/>
      <text id="text-index" x="61" y="152" fill="#000000" font-family="Verdana" font-size="12px" text-anchor="middle">INDEX</text>
      <rect x="434.68" y="8.33" width="40" height="20" fill="none" stroke="none"/>
      <text id="text-posxcnt" x="455" y="22" fill="#000000" font-family="Verdana" font-size="12px" text-anchor="middle">POSxCNT</text>
      <rect x="434.68" y="150.36" width="40" height="20" fill="none" stroke="none" pointer-events="all"/>
      <text id="text-velxcnt" x="455" y="164" fill="#000000" font-family="Verdana" font-size="12px" text-anchor="middle">VELxCNT</text>
      <g id="cell-w1xYic4BdvJ3pZ83VeZw-1">
        <path d="M 410.09 65.83 L 481.31 65.99" fill="none" stroke="#000000"/>
        <path d="M 486.56 66 L 479.55 69.48 L 481.31 65.99 L 479.57 62.48 Z" fill="#000000" stroke="#000000"/>
      </g>
      <text id="text-dir" x="455" y="61" fill="#000000" font-family="Verdana" font-size="12px" text-anchor="middle">DIR</text>
      <text id="text-o" x="649" y="42" fill="#000000" font-family="Verdana" font-size="12px" text-anchor="middle">θ</text>
      <text id="text-we" x="649" y="162" fill="#000000" font-family="Verdana" font-size="14px" text-anchor="middle">ωe</text>
      <text id="text-fault" x="658" y="277" fill="#000000" font-family="Verdana" font-size="14px" text-anchor="middle" font-style="italic">Fault</text>
    </g>
    <g id="boxes" pointer-events="all">
      <g id="box-digitalnoisefilter">
        <rect x="100" y="6" width="120" height="193" fill="url(#gradient-box)" stroke="#001dbc"/>
        <text x="160" y="80" fill="#000000" font-family="Verdana" font-size="12px" text-anchor="middle">Digital
          <tspan x="160" y="100">Noise</tspan>
          <tspan x="159" y="120">Filter</tspan>
        </text>
      </g>
      <g id="box-quadraturedecoder">
        <rect x="290" y="6" width="120" height="193" fill="url(#gradient-box)" stroke="#001dbc"/>
        <text x="345" y="90" fill="#000000" font-family="Verdana" font-size="12px" text-anchor="middle">Quadrature
          <tspan x="345" y="108">Decoder</tspan>
        </text>
      </g>
      <g id="box-diagnosis">
        <rect x="488.26" y="234" width="80" height="80" fill="url(#gradient-box)" stroke="#001dbc"/>
        <text x="528" y="278" fill="#000000" font-family="Verdana" font-size="12px" text-anchor="middle">Diagnosis</text>
      </g>
      <g id="box-position-calculation">
        <rect x="488.26" y="6" width="80" height="80" fill="url(#gradient-box)" stroke="#001dbc"/>
        <text x="528" y="40" fill="#000000" font-family="Verdana" font-size="12px" text-anchor="middle">Position
          <tspan x="528" y="58">Calculation</tspan>
        </text>
      </g>
      <g id="box-speed-calculation">
        <rect x="488.26" y="119" width="80" height="80" fill="url(#gradient-box)" stroke="#001dbc"/>
        <text x="528" y="155" fill="#000000" font-family="Verdana" font-size="12px" text-anchor="middle">Speed
            <tspan x="528" y="170">Calculation</tspan>
        </text>
      </g>
    </g>
	<g id="tooltip" visibility="hidden">
    <rect width="80" height="24" fill="#FFFDD0" rx="2" ry="2" stroke="black" stroke-width="0.3"/>
    <text x="4" y="15" font-size="10" font-weight="bold" fill="black" lengthAdjust="spacingAndGlyphs" font-family="Arial">t</text>
  </g>
  </g>
</svg>
