<svg xmlns="http://www.w3.org/2000/svg" width="24" height="24" viewBox="0 0 24 24"><defs><style>.a{fill:none;}.b{fill:#f5bc15;}.c{stroke:#000;stroke-linecap:square;stroke-width:0.537px;}</style></defs><circle class="a" cx="12" cy="12" r="12"/><circle class="b" cx="12" cy="12" r="12"/><g transform="translate(9.942 3.729)"><path d="M162.978,287.244a2.063,2.063,0,1,1-2.063-2.062A2.062,2.062,0,0,1,162.978,287.244Z" transform="translate(-158.853 -272.764)"/><path class="c" d="M161.26,146.924A2.046,2.046,0,0,0,159.231,149l.6,7.256c.115.939.212,1.47.6,1.721a1.991,1.991,0,0,0,1.654,0c.39-.249.489-.782.6-1.722l.6-7.256A2.046,2.046,0,0,0,161.26,146.924Z" transform="translate(-159.197 -146.924)"/></g></svg>