<svg xmlns="http://www.w3.org/2000/svg" width="24" height="24" viewBox="0 0 24 24"><defs><style>.a{fill:#f5bc15;}.b{stroke:#000;stroke-linecap:square;stroke-width:0.537px;}</style></defs><g transform="translate(0 -0.061)"><g transform="translate(0 0.061)"><path d="M6,18.066l-6-6,6-6,6-6,6,6,6,6-6,6-6,6Z" transform="translate(0 -0.061)"/></g><g transform="translate(1.6 1.654)"><path class="a" d="M6.191,16.657,1,11.462l5.2-5.2,5.2-5.2,5.2,5.2,5.2,5.2-5.191,5.2c-2.855,2.858-5.2,5.2-5.209,5.2S9.046,19.515,6.191,16.657Z" transform="translate(-1 -1.053)"/></g><g transform="translate(10.35 5.437)"><path d="M162.153,286.832a1.65,1.65,0,1,1-1.65-1.65A1.65,1.65,0,0,1,162.153,286.832Z" transform="translate(-158.853 -275.247)"/><path class="b" d="M160.854,146.924a1.637,1.637,0,0,0-1.623,1.657l.48,5.805c.092.751.17,1.176.48,1.376a1.593,1.593,0,0,0,1.323,0c.312-.2.391-.625.483-1.378l.48-5.805A1.637,1.637,0,0,0,160.854,146.924Z" transform="translate(-159.204 -146.924)"/></g></g></svg>