<svg xmlns="http://www.w3.org/2000/svg" width="24" height="24.746" viewBox="0 0 24 24.746"><defs><style>.a{fill:none;}.b{fill:#0078a0;}</style></defs><g transform="translate(4.127 2.414)"><rect class="a" width="24" height="24" transform="translate(-4.127 -2.414)"/><path class="b" d="M22.314,3.4H17.268a3.614,3.614,0,0,0-6.808,0H5.414A2.414,2.414,0,0,0,3,5.8V22.6A2.414,2.414,0,0,0,5.414,25h16.9a2.414,2.414,0,0,0,2.414-2.4V5.8A2.414,2.414,0,0,0,22.314,3.4Zm-8.45-.3a.9.9,0,1,1-.905.9A.909.909,0,0,1,13.864,3.1ZM10.122,20.2H8.432a.6.6,0,0,1-.6-.6V17.884a.561.561,0,0,1,.181-.42l7.014-6.972,2.559,2.544-7.038,7A.605.605,0,0,1,10.122,20.2Zm9.6-9.276L18.439,12.2,15.88,9.652,17.16,8.38a.6.6,0,0,1,.857,0l1.7,1.692A.592.592,0,0,1,19.719,10.924Z" transform="translate(-6.127 -2.668)"/></g></svg>