<?xml version="1.0" encoding="UTF-8" standalone="no"?>
<!--Generated by ucancode v1.0-->

<svg
   xmlns:dc="http://purl.org/dc/elements/1.1/"
   xmlns:cc="http://creativecommons.org/ns#"
   xmlns:rdf="http://www.w3.org/1999/02/22-rdf-syntax-ns#"
   xmlns:svg="http://www.w3.org/2000/svg"
   xmlns="http://www.w3.org/2000/svg"
   xmlns:sodipodi="http://sodipodi.sourceforge.net/DTD/sodipodi-0.dtd"
   xmlns:inkscape="http://www.inkscape.org/namespaces/inkscape"
   width="17.469999"
   height="17.469999"
   shape-rendering="geometricPrecision"
   id="svg3117"
   version="1.1"
   inkscape:version="0.48.2 r9819"
   sodipodi:docname="todo.svg">
  <metadata
     id="metadata3133">
    <rdf:RDF>
      <cc:Work
         rdf:about="">
        <dc:format>image/svg+xml</dc:format>
        <dc:type
           rdf:resource="http://purl.org/dc/dcmitype/StillImage" />
      </cc:Work>
    </rdf:RDF>
  </metadata>
  <defs
     id="defs3131" />
  <sodipodi:namedview
     pagecolor="#ffffff"
     bordercolor="#666666"
     borderopacity="1"
     objecttolerance="10"
     gridtolerance="10"
     guidetolerance="10"
     inkscape:pageopacity="0"
     inkscape:pageshadow="2"
     inkscape:window-width="640"
     inkscape:window-height="485"
     id="namedview3129"
     showgrid="false"
     fit-margin-top="0"
     fit-margin-left="0"
     fit-margin-right="0"
     fit-margin-bottom="0"
     inkscape:zoom="5.2485774"
     inkscape:cx="22.482283"
     inkscape:cy="-5.1522826"
     inkscape:window-x="0"
     inkscape:window-y="0"
     inkscape:window-maximized="0"
     inkscape:current-layer="svg3117" />
  <path
     style="fill:#7c9dab;fill-opacity:1;fill-rule:nonzero;stroke:none"
     d="m 17.47,13.96 0,0 c 0,1.91 -1.6,3.51 -3.51,3.51 l -10.49,0 C 1.56,17.47 0,15.87 0,13.96 L 0,3.47 C 0,1.56 1.56,0 3.47,0 l 10.49,0 c 1.91,0 3.51,1.56 3.51,3.47 l 0,10.49 z"
     id="path3119"
     inkscape:connector-curvature="0" />
  <path
     style="fill:#fefefe;fill-opacity:1;fill-rule:nonzero;stroke:none"
     d="m 5.78,13.6 0,0 -2.73,-2.72 1.8,0 c 0.5,0 0.93,0.42 0.93,0.95 l 0,1.77 0,0 z m 5.95,-2.69 0,0 -0.46,0.11 0,2.09 c 0,0.49 -0.43,0.92 -0.96,0.92 l -3.72,0 0,-2.2 C 6.59,10.88 5.81,10.1 4.85,10.1 l -2.3,0 0,-5.96 c 0,-0.53 0.43,-0.92 0.92,-0.92 l 0.25,0 0,-0.81 -0.25,0 c -0.21,0 -0.39,0.07 -0.56,0.1 -0.57,0.22 -1,0.71 -1.14,1.28 0,0.11 -0.03,0.25 -0.03,0.35 l 0,6.38 c 0,0 0,0 0,0 l 0,2.59 c 0,0.96 0.78,1.73 1.73,1.73 0,0 1.28,0 2.59,0 l 3.05,0 0,0 1.2,0 0,0 0,0 c 0,0 0,0 0,0 0.21,0 0.43,-0.07 0.6,-0.14 0.53,-0.17 0.96,-0.67 1.1,-1.24 0,-0.14 0.04,-0.25 0.04,-0.35 l 0,-2.45 -0.32,0.25 0,0 z m -3.72,-8.5 0,0 c -0.11,0 -0.18,0 -0.29,0 0,0 0,0 0,0 l -1.87,0 0,0.81 2.16,0 0,-0.81 0,0 z m 3.26,1.73 0,0 0,2.63 0.78,-0.64 0,-1.99 c 0,-0.95 -0.78,-1.73 -1.74,-1.73 l -0.21,0 0,0.81 0.21,0 c 0.53,0 0.96,0.39 0.96,0.92 l 0,0 z m -2.2,-0.1 0,0 c 0.32,0 0.6,-0.25 0.6,-0.6 l 0,-1.46 c 0,-0.35 -0.28,-0.6 -0.6,-0.6 -0.35,0 -0.6,0.25 -0.6,0.6 l 0,1.46 c 0,0.35 0.25,0.6 0.6,0.6 l 0,0 z m -4.29,0 0,0 c 0.36,0 0.61,-0.25 0.61,-0.6 l 0,-1.46 c 0,-0.35 -0.25,-0.6 -0.61,-0.6 -0.32,0 -0.6,0.25 -0.6,0.6 l 0,1.46 c 0,0.35 0.28,0.6 0.6,0.6 z"
     id="path3121"
     inkscape:connector-curvature="0" />
  <path
     style="fill:#fefefe;fill-opacity:1;fill-rule:nonzero;stroke:none"
     d="m 14.14,4.96 0,0 0,0.03 c 0,0 0,0 0,0 l 0.85,-0.7 c 0.18,-0.15 0.49,-0.15 0.67,0.07 l 1.03,1.24 c 0.18,0.21 0.14,0.53 -0.07,0.71 L 15.8,6.98 14.14,4.96 z"
     id="path3123"
     inkscape:connector-curvature="0" />
  <path
     style="fill:#fefefe;fill-opacity:1;fill-rule:nonzero;stroke:none"
     d="m 10.13,8.29 0,0 3.48,-2.87 1.63,1.98 -3.48,2.87 -1.63,-1.98 z"
     id="path3125"
     inkscape:connector-curvature="0" />
  <path
     style="fill:#fefefe;fill-opacity:1;fill-rule:nonzero;stroke:none"
     d="m 9.71,8.79 0,0 1.49,1.8 -2.13,0.39 C 8.89,11.02 8.82,10.91 8.89,10.81 L 9.71,8.79 z"
     id="path3127"
     inkscape:connector-curvature="0" />
</svg>
