<svg xmlns="http://www.w3.org/2000/svg" width="24" height="24" viewBox="0 0 24 24"><defs><style>.a{fill:#fff;}.b,.c{fill:#0078a0;}.b{fill-rule:evenodd;}</style></defs><g transform="translate(-2.169 -31.606)"><g transform="translate(2.169 31.606)"><circle class="a" cx="11.783" cy="11.783" r="11.783" transform="translate(0.217 0.217)"/><path class="b" d="M20.485,20.485a12,12,0,1,1,0-16.97,12,12,0,0,1,0,16.97ZM4.457,4.458a10.667,10.667,0,1,0,15.085,0,10.667,10.667,0,0,0-15.085,0ZM18.762,6.25c-.068,1.5-.632,4.472-4.341,8.267a13.8,13.8,0,0,1-1.9,1.628L11.866,18.9v.107L9.516,21.045c-.112.1-.213-.009-.209-.117l-.948-2.721a3.123,3.123,0,0,1-1.707-.185L5.641,19.047a.2.2,0,0,1-.321-.015l-.076-.083-.083-.076a.2.2,0,0,1-.015-.321l1.025-1.011a3.123,3.123,0,0,1-.185-1.707l-2.72-.945c-.107,0-.219-.1-.117-.209l2.037-2.344h.107l2.756-.667A13.792,13.792,0,0,1,9.677,9.775c3.8-3.709,6.771-4.273,8.267-4.341l.748-.035a.067.067,0,0,1,.057.029h0v.011s.009,0,.011,0h0a.067.067,0,0,1,.029.057ZM13.573,10.56a1.4,1.4,0,1,0,0,1.975,1.4,1.4,0,0,0,0-1.975Z" transform="translate(0 0)"/></g><g transform="translate(2.169 31.606)"><circle class="c" cx="12" cy="12" r="12"/><g transform="translate(0.82 0.82)"><circle class="c" cx="11.18" cy="11.18" r="11.18"/></g><g transform="translate(5.523 4.283)"><path class="a" d="M11.176,4.674,11.85,7.19l2.516.674,2.28-2.281a4.458,4.458,0,0,1-5.481,5.45L6.752,15.44a2.247,2.247,0,1,1-3.178-3.178L7.987,7.854a4.457,4.457,0,0,1,5.479-5.473Z" transform="translate(-2.916 -2.222)"/></g></g></g></svg>