<svg xmlns="http://www.w3.org/2000/svg" id="quadrature_axis_forced" style="background-color:rgb(255, 255, 255)" viewBox="0 0 610 348"><defs id="defs22"><linearGradient id="mx-gradient-ffffff-1-dae8fc-1-s-0" x1="195.03" x2="195.03" y1="157.236" y2="15.394" gradientTransform="scale(.75204 1.32972)" gradientUnits="userSpaceOnUse"><stop id="stop2" offset="0%" stop-color="#dae8fc"/><stop id="stop4" offset="100%" stop-color="#fff"/></linearGradient><linearGradient id="mx-gradient-ffffff-1-f5f5f5-1-s-0" x1="539.58" x2="539.58" y1="165.844" y2="16.237" gradientTransform="matrix(.77433 0 0 1.2607 8.846 0)" gradientUnits="userSpaceOnUse"><stop id="stop7" offset="0%" stop-color="#f5f5f5"/><stop id="stop9" offset="100%" stop-color="#fff"/></linearGradient><linearGradient id="mx-gradient-ffffff-1-e1d5e7-1-s-0" x1="669.894" x2="669.894" y1="115.271" y2="11.286" gradientTransform="scale(.55133 1.8138)" gradientUnits="userSpaceOnUse"><stop id="stop12" offset="0%" stop-color="#e1d5e7"/><stop id="stop14" offset="100%" stop-color="#fff"/></linearGradient><linearGradient id="mx-gradient-ffffff-1-ffe6cc-1-s-0" x1="317.598" x2="317.598" y1="166.771" y2="16.328" gradientTransform="scale(.79764 1.2537)" gradientUnits="userSpaceOnUse"><stop id="stop17" offset="0%" stop-color="#ffe6cc"/><stop id="stop19" offset="100%" stop-color="#fff"/></linearGradient></defs><path id="Field" fill="url(#mx-gradient-ffffff-1-dae8fc-1-s-0)" d="M146.67 20.47h106.67v188.61H146.67z" pointer-events="all"/><path id="path26" fill="none" stroke="#ccc" stroke-miterlimit="10" d="M226.67 60.89H118.59" stroke-dasharray="3, 3" pointer-events="stroke"/><path id="Close" fill="url(#mx-gradient-ffffff-1-f5f5f5-1-s-0)" stroke-width=".988" d="M426.66 20.47h115.846v188.61H426.66z" pointer-events="all"/><path id="Hold" fill="url(#mx-gradient-ffffff-1-e1d5e7-1-s-0)" d="M369.33 20.47h57.33v188.61h-57.33z" pointer-events="all"/><path id="Accel" fill="url(#mx-gradient-ffffff-1-ffe6cc-1-s-0)" d="M253.33 20.47h120v188.61h-120z" pointer-events="all"/><path id="path34" fill="none" stroke="#000" stroke-miterlimit="10" d="M120 209.08V13.37" pointer-events="stroke"/><path id="path36" stroke="#000" stroke-miterlimit="10" d="M120 8.12l3.5 7-3.5-1.75-3.5 1.75z" pointer-events="all"/><path id="path38" fill="none" stroke="#000" stroke-miterlimit="10" d="M120 209.08h473.63" pointer-events="stroke"/><path id="path40" stroke="#000" stroke-miterlimit="10" d="M598.88 209.08l-7 3.5 1.75-3.5-1.75-3.5z" pointer-events="all"/><path id="path42" fill="none" stroke="#900" stroke-miterlimit="10" d="M146.67 209.08L196.61 70.3Q200 60.89 210 60.89h43.33" pointer-events="stroke"/><path id="path44" fill="none" stroke="#900" stroke-width="1.025" stroke-miterlimit="10" d="M253.33 60.89h121.53" pointer-events="stroke"/><path id="path46" fill="none" stroke="#900" stroke-miterlimit="10" d="M426.3 145.76l11.08 7.75q8.2 5.73 16.39 0l5.54-3.87q5.54-3.88 13.73 1.85l5.54 3.88q5.54 3.87 13.74-1.86l5.54-3.87q5.53-3.88 13.73 1.85l5.54 3.88q5.54 3.87 13.73-1.86l11.08-7.75" pointer-events="stroke"/><path id="path48" fill="none" stroke="#900" stroke-width=".948" stroke-miterlimit="10" d="M426.687 114.798l-51.845-53.926" pointer-events="stroke"/><path id="rect50" fill="none" d="M130.67 16.43H264v26.94H130.67z" pointer-events="all"/><g id="g56"><text id="text52" x="197" y="34" font-family="Arial" font-size="12" text-anchor="middle" style="-inkscape-font-specification:'Arial, Normal';font-variant-ligatures:normal;font-variant-caps:normal;font-variant-numeric:normal;font-variant-east-asian:normal" transform="translate(3.5 -.5)">Field alignement</text></g><path id="rect58" fill="none" d="M246.67 16.43H380v26.94H246.67z" pointer-events="all"/><g id="g64"><text id="text60" x="313" y="34" font-family="Arial" font-size="12" text-anchor="middle" transform="translate(-.5 -.5)">Acceleration</text></g><path id="rect66" fill="none" d="M369.33 17.78h53.33v26.94h-53.33z" pointer-events="all"/><g id="g72"><text id="text68" x="396" y="35" font-family="Arial" font-size="12" text-anchor="middle" transform="translate(-.5 -.5)">Hold</text></g><path id="rect74" fill="none" d="M409.33 17.78h133.33v26.94H409.33z" pointer-events="all"/><g id="g80"><text id="text76" x="476" y="35" font-family="Arial" font-size="12" text-anchor="middle" transform="translate(-.5 -.5)">Close loop</text></g><path id="path82" fill="none" stroke="#900" stroke-miterlimit="10" d="M426.58 146.65l.09-31.87" pointer-events="stroke"/><path id="rect84" fill="none" d="M-.14 181.44V48.11H26.8v133.33z" pointer-events="all"/><g id="g90"><text id="text86" x="13" y="118" font-family="Arial" font-size="12" text-anchor="middle" transform="rotate(-90 16.65 24.208)">Current</text></g><path id="rect92" fill="none" d="M440 230.64h133.33v26.94H440z" pointer-events="all"/><g id="g98"><text id="text94" x="507" y="248" font-family="Arial" font-size="12" text-anchor="middle" transform="translate(75.846 -20.66)">Time</text></g><path id="rect108" fill="none" d="M246.67 320.06H380V347H246.67z" pointer-events="all"/><g id="g114"><text id="text110" x="313" y="337" font-family="Arial" font-size="12" text-anchor="middle" transform="translate(3.664 -42.14)">Current Profile</text></g><path id="path116" fill="none" stroke="#000" stroke-miterlimit="10" d="M153.03 230.64h93.94" pointer-events="stroke"/><path id="path118" stroke="#000" stroke-miterlimit="10" d="M147.78 230.64l7-3.5-1.75 3.5 1.75 3.5z" pointer-events="all"/><path id="path120" stroke="#000" stroke-miterlimit="10" d="M252.22 230.64l-7 3.5 1.75-3.5-1.75-3.5z" pointer-events="all"/><path id="rect122" fill="none" d="M140 240.07h120v26.94H140z" pointer-events="all"/><g id="g128"><text id="text124" x="200" y="257" font-family="Arial" font-size="12" text-anchor="middle" transform="translate(-.5 -.5)">Alignment Time</text></g><path id="path130" fill="none" stroke="#000" stroke-miterlimit="10" d="M255.7 230.64h111.27" pointer-events="stroke"/><path id="path132" stroke="#000" stroke-miterlimit="10" d="M250.45 230.64l7-3.5-1.75 3.5 1.75 3.5z" pointer-events="all"/><path id="path134" stroke="#000" stroke-miterlimit="10" d="M372.22 230.64l-7 3.5 1.75-3.5-1.75-3.5z" pointer-events="all"/><path id="rect136" fill="none" d="M253.33 240.07h120v26.94h-120z" pointer-events="all"/><g id="g142"><text id="text138" x="313" y="257" font-family="Arial" font-size="12" text-anchor="middle" transform="translate(-.5 -.5)">Acceleration time</text></g><path id="path144" fill="none" stroke="#000" stroke-miterlimit="10" d="M379.7 230.64h40.6" pointer-events="stroke"/><path id="path146" stroke="#000" stroke-miterlimit="10" d="M374.45 230.64l7-3.5-1.75 3.5 1.75 3.5z" pointer-events="all"/><path id="path148" stroke="#000" stroke-miterlimit="10" d="M425.55 230.64l-7 3.5 1.75-3.5-1.75-3.5z" pointer-events="all"/><path id="rect150" fill="none" d="M368 241.42h60v26.94h-60z" pointer-events="all"/><g id="g156"><text id="text152" x="402" y="258" font-family="Arial" font-size="12" text-anchor="middle" transform="translate(-2.5 -.5)">Hold time</text></g><path id="path158" fill="none" stroke="#000" stroke-miterlimit="10" d="M146.4 237.38V223.9" pointer-events="stroke"/><path id="path160" fill="none" stroke="#000" stroke-miterlimit="10" d="M251.73 237.38V223.9" pointer-events="stroke"/><path id="path162" fill="none" stroke="#000" stroke-miterlimit="10" d="M373.07 237.38V223.9" pointer-events="stroke"/><path id="path164" fill="none" stroke="#000" stroke-miterlimit="10" d="M426.797 237.54v-13.48" pointer-events="stroke"/><path id="rect166" fill="none" d="M9.33 44.72h133.33v26.94H9.33z" pointer-events="all"/><g id="g172"><text id="text168" x="68" y="64" font-family="Arial" font-size="12" text-anchor="middle" transform="translate(-.5 -.5)">Alignment current</text></g></svg>