<?xml version="1.0" encoding="UTF-8" standalone="no"?>
<!-- Generator: Adobe Illustrator 12.0.1, SVG Export Plug-In . SVG Version: 6.00 Build 51448)  -->

<svg
   xmlns:dc="http://purl.org/dc/elements/1.1/"
   xmlns:cc="http://creativecommons.org/ns#"
   xmlns:rdf="http://www.w3.org/1999/02/22-rdf-syntax-ns#"
   xmlns:svg="http://www.w3.org/2000/svg"
   xmlns="http://www.w3.org/2000/svg"
   xmlns:sodipodi="http://sodipodi.sourceforge.net/DTD/sodipodi-0.dtd"
   xmlns:inkscape="http://www.inkscape.org/namespaces/inkscape"
   version="1.1"
   id="Layer_1"
   width="17.46875"
   height="17.46875"
   viewBox="0 0 17.46875 17.46875"
   overflow="visible"
   enable-background="new 0 0 45.332 45.332"
   xml:space="preserve"
   inkscape:version="0.48.2 r9819"
   sodipodi:docname="execute.svg"
   style="overflow:visible"><metadata
   id="metadata3373"><rdf:RDF><cc:Work
       rdf:about=""><dc:format>image/svg+xml</dc:format><dc:type
         rdf:resource="http://purl.org/dc/dcmitype/StillImage" /><dc:title></dc:title></cc:Work></rdf:RDF></metadata><defs
   id="defs3371" /><sodipodi:namedview
   pagecolor="#ffffff"
   bordercolor="#666666"
   borderopacity="1"
   objecttolerance="10"
   gridtolerance="10"
   guidetolerance="10"
   inkscape:pageopacity="0"
   inkscape:pageshadow="2"
   inkscape:window-width="1600"
   inkscape:window-height="1148"
   id="namedview3369"
   showgrid="false"
   showguides="true"
   inkscape:guide-bbox="true"
   fit-margin-top="0"
   fit-margin-left="0"
   fit-margin-right="0"
   fit-margin-bottom="0"
   inkscape:zoom="10.412071"
   inkscape:cx="35.848167"
   inkscape:cy="-10.000193"
   inkscape:window-x="-8"
   inkscape:window-y="-8"
   inkscape:window-maximized="1"
   inkscape:current-layer="Layer_1" />
<path
   style="fill:#58585a;fill-opacity:1;fill-rule:nonzero;stroke:none"
   d="M 3.4687501,0 C 1.5587499,0 0,1.55875 0,3.46875 L 0,13.9375 c 0,1.91 1.5587499,3.53125 3.4687501,3.53125 l 10.4999999,0 c 1.91,0 3.5,-1.62125 3.5,-3.53125 l 0,-10.46875 c 0,-1.91 -1.59,-3.46875 -3.5,-3.46875 L 3.4687501,0 z m 4.625,1.65625 c 0.482206,0 0.975713,0.1946555 1.34375,0.5625 L 14.625,7.40625 c 0.736073,0.735688 0.735303,1.920176 0,2.65625 l -5.1874999,5.15625 c -0.736074,0.736074 -1.920562,0.736074 -2.65625,0 -0.735688,-0.736074 -0.735688,-1.920176 0,-2.65625 l 1.96875,-1.9375 -4.5625,0 c -1.040523,0 -1.875,-0.865342 -1.875,-1.90625 0,-1.040524 0.834477,-1.875 1.875,-1.875 l 4.5625,0 -1.96875,-1.96875 c -0.736074,-0.736073 -0.736074,-1.920562 0,-2.65625 0.368037,-0.3678445 0.830294,-0.5625 1.3125,-0.5625 z"
   id="path3031"
   inkscape:connector-curvature="0" />
</svg>