<?xml version="1.0" encoding="UTF-8" standalone="no"?>
<!-- Created with Inkscape (http://www.inkscape.org/) -->

<svg
   xmlns:dc="http://purl.org/dc/elements/1.1/"
   xmlns:cc="http://creativecommons.org/ns#"
   xmlns:rdf="http://www.w3.org/1999/02/22-rdf-syntax-ns#"
   xmlns:svg="http://www.w3.org/2000/svg"
   xmlns="http://www.w3.org/2000/svg"
   version="1.1"
   width="31.237499"
   height="31.225"
   id="svg2997"
   xml:space="preserve"><metadata
     id="metadata3003"><rdf:RDF><cc:Work
         rdf:about=""><dc:format>image/svg+xml</dc:format><dc:type
           rdf:resource="http://purl.org/dc/dcmitype/StillImage" /><dc:title></dc:title></cc:Work></rdf:RDF></metadata><defs
     id="defs3001"><clipPath
       id="clipPath3011"><path
         d="m 0,791.28 595.2,0 0,-791.04 -595.2,0 0,791.04 z"
         id="path3013" /></clipPath><clipPath
       id="clipPath3029"><path
         d="m 0,791.28 595.2,0 0,-791.04 -595.2,0 0,791.04 z"
         id="path3031" /></clipPath><clipPath
       id="clipPath3225"><path
         d="m 114.54,533.72 35.68,0 0,-25.13 -35.68,0 0,25.13 z"
         id="path3227" /></clipPath><clipPath
       id="clipPath3241"><path
         d="m 154.22,533.72 35.69,0 0,-25.13 -35.69,0 0,25.13 z"
         id="path3243" /></clipPath><clipPath
       id="clipPath3257"><path
         d="m 193.91,533.72 35.68,0 0,-25.2 -35.68,0 0,25.2 z"
         id="path3259" /></clipPath></defs><g
     transform="matrix(1.25,0,0,-1.25,-93.5625,667.15)"
     id="g3005"><g
       id="g4330"><path
         d="m 74.85,512.7 0,17.06 c 0,2.187 1.773,3.96 3.96,3.96 l 17.07,0 c 2.187,0 3.96,-1.773 3.96,-3.96 l 0,-17.06 c 0,-2.187 -1.773,-3.96 -3.96,-3.96 l -17.07,0 c -2.187,0 -3.96,1.773 -3.96,3.96"
         id="path3199"
         style="fill:#51bbed;fill-opacity:1;fill-rule:evenodd;stroke:none" /><path
         d="m 108.09375,324.40625 c -0.76859,7.8e-4 -1.53625,0.3175 -2.125,0.90625 -1.1725,1.1725 -1.1725,3.0475 0,4.21875 l 4.5,4.5 -9.6875,0 c -1.65625,0 -3,1.34375 -3,3 0,1.6575 1.34375,3 3,3 l 9.6875,0 -4.5,4.5 c -1.17375,1.17375 -1.175,3.07875 0,4.25 1.1725,1.16875 3.07875,1.17125 4.25,0 l 9.5,-9.5 c 0.61776,-0.61776 0.90835,-1.44118 0.875,-2.25 0.0314,-0.80646 -0.25889,-1.63389 -0.875,-2.25 l -9.5,-9.46875 0,-0.0312 c -0.58562,-0.58562 -1.35641,-0.87578 -2.125,-0.875 z"
         transform="matrix(0.8,0,0,-0.8,0,790.86)"
         id="path3203"
         style="fill:#ffffff;fill-opacity:1;fill-rule:evenodd;stroke:none" /></g></g></svg>