<?xml version="1.0" encoding="UTF-8" standalone="no"?>
<!--Generated by ucancode v1.0-->

<svg
   xmlns:dc="http://purl.org/dc/elements/1.1/"
   xmlns:cc="http://creativecommons.org/ns#"
   xmlns:rdf="http://www.w3.org/1999/02/22-rdf-syntax-ns#"
   xmlns:svg="http://www.w3.org/2000/svg"
   xmlns="http://www.w3.org/2000/svg"
   xmlns:sodipodi="http://sodipodi.sourceforge.net/DTD/sodipodi-0.dtd"
   xmlns:inkscape="http://www.inkscape.org/namespaces/inkscape"
   width="17.469999"
   height="17.469999"
   shape-rendering="geometricPrecision"
   id="svg3029"
   version="1.1"
   inkscape:version="0.48.2 r9819"
   sodipodi:docname="info.svg">
  <metadata
     id="metadata3041">
    <rdf:RDF>
      <cc:Work
         rdf:about="">
        <dc:format>image/svg+xml</dc:format>
        <dc:type
           rdf:resource="http://purl.org/dc/dcmitype/StillImage" />
      </cc:Work>
    </rdf:RDF>
  </metadata>
  <defs
     id="defs3039" />
  <sodipodi:namedview
     pagecolor="#ffffff"
     bordercolor="#666666"
     borderopacity="1"
     objecttolerance="10"
     gridtolerance="10"
     guidetolerance="10"
     inkscape:pageopacity="0"
     inkscape:pageshadow="2"
     inkscape:window-width="1239"
     inkscape:window-height="940"
     id="namedview3037"
     showgrid="false"
     fit-margin-top="0"
     fit-margin-left="0"
     fit-margin-right="0"
     fit-margin-bottom="0"
     inkscape:zoom="5.2485774"
     inkscape:cx="22.482283"
     inkscape:cy="-5.1522826"
     inkscape:window-x="0"
     inkscape:window-y="0"
     inkscape:window-maximized="0"
     inkscape:current-layer="svg3029" />
  <path
     style="fill:#1477c5;fill-opacity:1;fill-rule:nonzero;stroke:none"
     d="m 17.47,13.96 0,0 c 0,1.91 -1.6,3.51 -3.51,3.51 l -10.49,0 C 1.56,17.47 0,15.87 0,13.96 L 0,3.47 C 0,1.56 1.56,0 3.47,0 l 10.49,0 c 1.91,0 3.51,1.56 3.51,3.47 l 0,10.49 z"
     id="path3031"
     inkscape:connector-curvature="0" />
  <path
     style="fill:#fefefe;fill-opacity:1;fill-rule:nonzero;stroke:none"
     d="m 10.52,4 0,0 c 0,0.92 -0.78,1.7 -1.7,1.7 C 7.87,5.7 7.09,4.92 7.09,4 c 0,-0.95 0.78,-1.7 1.73,-1.7 0.92,0 1.7,0.75 1.7,1.7 z"
     id="path3033"
     inkscape:connector-curvature="0" />
  <path
     style="fill:#fefefe;fill-opacity:1;fill-rule:nonzero;stroke:none"
     d="m 10.52,7.05 0,0 c 0,-0.43 -0.35,-0.78 -0.81,-0.78 l -3.01,0 c -0.43,0 -0.82,0.35 -0.82,0.78 l 0,0.32 c 0,0.42 0.39,0.78 0.82,0.78 l 0.39,0 0,4.68 c 0,0.95 0.78,1.7 1.73,1.7 0.92,0 1.7,-0.75 1.7,-1.7 l 0,-5.78 z"
     id="path3035"
     inkscape:connector-curvature="0" />
</svg>
