<?xml version="1.0" encoding="UTF-8" standalone="no"?>
<!-- Created with Inkscape (http://www.inkscape.org/) -->

<svg
   xmlns:dc="http://purl.org/dc/elements/1.1/"
   xmlns:cc="http://creativecommons.org/ns#"
   xmlns:rdf="http://www.w3.org/1999/02/22-rdf-syntax-ns#"
   xmlns:svg="http://www.w3.org/2000/svg"
   xmlns="http://www.w3.org/2000/svg"
   version="1.1"
   width="31.237499"
   height="31.225"
   id="svg2997"
   xml:space="preserve"><metadata
     id="metadata3003"><rdf:RDF><cc:Work
         rdf:about=""><dc:format>image/svg+xml</dc:format><dc:type
           rdf:resource="http://purl.org/dc/dcmitype/StillImage" /><dc:title></dc:title></cc:Work></rdf:RDF></metadata><defs
     id="defs3001"><clipPath
       id="clipPath3011"><path
         d="m 0,791.28 595.2,0 0,-791.04 -595.2,0 0,791.04 z"
         id="path3013" /></clipPath><clipPath
       id="clipPath3029"><path
         d="m 0,791.28 595.2,0 0,-791.04 -595.2,0 0,791.04 z"
         id="path3031" /></clipPath><clipPath
       id="clipPath3225"><path
         d="m 114.54,533.72 35.68,0 0,-25.13 -35.68,0 0,25.13 z"
         id="path3227" /></clipPath><clipPath
       id="clipPath3241"><path
         d="m 154.22,533.72 35.69,0 0,-25.13 -35.69,0 0,25.13 z"
         id="path3243" /></clipPath><clipPath
       id="clipPath3257"><path
         d="m 193.91,533.72 35.68,0 0,-25.2 -35.68,0 0,25.2 z"
         id="path3259" /></clipPath></defs><g
     transform="matrix(1.25,0,0,-1.25,-291.9875,667.15)"
     id="g3005"><g
       id="g4341"><path
         d="m 233.59,512.7 0,17.06 c 0,2.187 1.773,3.96 3.96,3.96 l 17.07,0 c 2.187,0 3.96,-1.773 3.96,-3.96 l 0,-17.06 c 0,-2.187 -1.773,-3.96 -3.96,-3.96 l -17.07,0 c -2.187,0 -3.96,1.773 -3.96,3.96"
         id="path3269"
         style="fill:#f03c2e;fill-opacity:1;fill-rule:evenodd;stroke:none" /><path
         d="m 299.3125,325.96875 c -0.4219,0.0594 -0.85,0.25594 -1.1875,0.5625 -0.9075,0.81875 -0.97375,2.2175 -0.15625,3.125 l 6.65625,7.40625 -6.65625,7.375 c -0.8175,0.9075 -0.7525,2.30625 0.15625,3.125 0.9075,0.8175 2.3075,0.75125 3.125,-0.15625 l 6.375,-7.0625 6.34375,7.0625 c 0.8175,0.9075 2.2175,0.97375 3.125,0.15625 0.9075,-0.81875 0.97375,-2.2175 0.15625,-3.125 l -6.65625,-7.375 6.65625,-7.40625 c 0.81488,-0.90431 0.73525,-2.3115 -0.15625,-3.125 l -0.0312,0 c -0.90793,-0.80026 -2.2817,-0.7452 -3.09375,0.15625 l -6.34375,7.0625 -6.375,-7.0625 c -0.51328,-0.56953 -1.23434,-0.81774 -1.9375,-0.71875 z"
         transform="matrix(0.8,0,0,-0.8,0,790.86)"
         id="path3273"
         style="fill:#ffffff;fill-opacity:1;fill-rule:evenodd;stroke:#ffffff;stroke-width:1.80000007;stroke-linecap:butt;stroke-linejoin:round;stroke-miterlimit:3.8599999;stroke-opacity:1;stroke-dasharray:none" /></g></g></svg>